<svg xmlns="http://www.w3.org/2000/svg" xmlns:xlink="http://www.w3.org/1999/xlink" viewBox="0 0 864 731.843"><defs><style>.a{fill:none;stroke:#fff;stroke-width:150px;}.b{fill:#fff;font-size:100px;font-family:SegoeUI-Bold, Segoe UI;font-weight:700;}.c{fill:#2086bc;}.d{fill:#06667d;font-size:150px;font-family:SegoeUIBlack, Segoe UI;}.e{filter:url(#g);}.f{filter:url(#e);}.g{filter:url(#c);}.h{filter:url(#a);}</style><filter id="a" x="368" y="471.843" width="154" height="260" filterUnits="userSpaceOnUse"><feOffset dy="10" input="SourceAlpha"/><feGaussianBlur stdDeviation="10" result="b"/><feFlood flood-opacity="0.161"/><feComposite operator="in" in2="b"/><feComposite in="SourceGraphic"/></filter><filter id="c" x="477" y="471.843" width="126" height="260" filterUnits="userSpaceOnUse"><feOffset dy="10" input="SourceAlpha"/><feGaussianBlur stdDeviation="10" result="d"/><feFlood flood-opacity="0.161"/><feComposite operator="in" in2="d"/><feComposite in="SourceGraphic"/></filter><filter id="e" x="557" y="471.843" width="203" height="260" filterUnits="userSpaceOnUse"><feOffset dy="10" input="SourceAlpha"/><feGaussianBlur stdDeviation="10" result="f"/><feFlood flood-opacity="0.161"/><feComposite operator="in" in2="f"/><feComposite in="SourceGraphic"/></filter><filter id="g" x="714" y="471.843" width="150" height="260" filterUnits="userSpaceOnUse"><feOffset dy="10" input="SourceAlpha"/><feGaussianBlur stdDeviation="10" result="h"/><feFlood flood-opacity="0.161"/><feComposite operator="in" in2="h"/><feComposite in="SourceGraphic"/></filter></defs><g transform="translate(-874 -26.157)"><path class="a" d="M5187.178,1098.608s37.452,433.825-15.605,561.788-165.415,78.026-259.047,0" transform="translate(-3894 -1066)"/><text class="b" transform="translate(874 283)"><tspan x="0" y="0">ABOUT </tspan><tspan class="c" y="0">US</tspan></text><g transform="translate(0 -1080)"><g class="h" transform="matrix(1, 0, 0, 1, 874, 1106.16)"><text class="d" transform="translate(398 653.84)"><tspan x="0" y="0">u</tspan></text></g><g class="g" transform="matrix(1, 0, 0, 1, 874, 1106.16)"><text class="d" transform="translate(507 653.84)"><tspan x="0" y="0">f</tspan></text></g><g class="f" transform="matrix(1, 0, 0, 1, 874, 1106.16)"><text class="d" transform="translate(587 653.84)"><tspan x="0" y="0">m</tspan></text></g><g class="e" transform="matrix(1, 0, 0, 1, 874, 1106.16)"><text class="d" transform="translate(746 653.84)"><tspan x="0" y="0">y</tspan></text></g></g></g></svg>