<svg xmlns="http://www.w3.org/2000/svg" xmlns:xlink="http://www.w3.org/1999/xlink" viewBox="0 0 402.427 280.67"><defs><style>.a{fill:none;stroke:#535461;stroke-miterlimit:10;stroke-width:2px;}.b{fill:#32e7fc;}.c{fill:#00add7;}.d{fill:#ffd037;}.e{fill:#a8a8a8;}.f{opacity:0.2;}.g{fill:url(#a);}.h{fill:#474059;}.i{opacity:0.1;}.j{fill:#fff;}.k{fill:#d6d6e3;}.l{fill:#751d75;}.m{fill:#8499f0;}.n{fill:#fc6681;}.o{fill:#ffc74c;}.p{fill:#85d459;}.q{fill:url(#b);}.r{fill:url(#c);}.s{fill:#f7bbc3;}.t{fill:#b77983;}.u{fill:#605d82;}.v,.x{opacity:0.05;}.w{fill:#d9d9ea;}.y{fill:#a1616a;}</style><linearGradient id="a" x1="0.5" y1="1" x2="0.5" gradientUnits="objectBoundingBox"><stop offset="0" stop-color="gray" stop-opacity="0.251"/><stop offset="0.54" stop-color="gray" stop-opacity="0.122"/><stop offset="1" stop-color="gray" stop-opacity="0.102"/></linearGradient><linearGradient id="b" y2="0" xlink:href="#a"/><linearGradient id="c" y2="0" xlink:href="#a"/></defs><g transform="translate(-273.288 -540.279)"><path class="a" d="M759.52,179.553s32-50.3,35.864-71.78a276.539,276.539,0,0,1,11.17-41.243" transform="translate(-219.778 479.334)"/><path class="b" d="M859.192,166.53,839,168.248S849.74,186.722,859.192,166.53Z" transform="translate(-265.112 422.296)"/><path class="b" d="M803.069,140.53l15.99,12.807S798.344,161.581,803.069,140.53Z" transform="translate(-244.218 437.126)"/><path class="c" d="M867.861,125.53l-18.181,2.436S865.713,141,867.861,125.53Z" transform="translate(-271.203 445.682)"/><path class="c" d="M821.594,110.53l12,8.425S819.017,125.137,821.594,110.53Z" transform="translate(-255.01 454.237)"/><path class="c" d="M860.31,88.457s14.9-3.948,17.051-3.089.859,10.311-5.155,10.74S860.31,88.457,860.31,88.457Z" transform="translate(-277.267 468.659)"/><path class="c" d="M832.187,66.53s9.452,9.022,9.881,11.17-7.733,7.3-12.029,0S832.187,66.53,832.187,66.53Z" transform="translate(-259.158 479.334)"/><circle class="d" cx="4.296" cy="4.296" r="4.296" transform="translate(586.347 542.427)"/><circle class="d" cx="4.296" cy="4.296" r="4.296" transform="translate(578.614 540.279)"/><path class="a" d="M196.25,516.324s-13.67-35.882-2.926-63.905a58.176,58.176,0,0,0,1.865-36.754A97.839,97.839,0,0,0,188.71,399" transform="translate(105.803 289.698)"/><path class="b" d="M182.552,347.748c.348,4.5-6.784,18.186-6.784,18.186s-9.164-12.416-9.512-16.918a8.174,8.174,0,1,1,16.3-1.267Z" transform="translate(118.625 323.233)"/><path class="b" d="M219.126,397.322c-2.148,3.97-15.578,11.578-15.578,11.578s-.941-15.4,1.212-19.371a8.174,8.174,0,1,1,14.371,7.793Z" transform="translate(97.457 297.541)"/><path class="b" d="M220.81,492.5c-3.867,2.337-19.29,2.148-19.29,2.148s6.964-13.773,10.822-16.111a8.174,8.174,0,1,1,8.468,13.984Z" transform="translate(98.497 245.006)"/><path class="b" d="M209.534,569.748c-3.411,2.956-18.654,5.357-18.654,5.357s4.537-14.753,7.944-17.709a8.174,8.174,0,1,1,10.71,12.352Z" transform="translate(104.566 200.492)"/><path class="b" d="M160.229,426.224c3.471,2.887,18.761,4.966,18.761,4.966s-4.842-14.654-8.317-17.537a8.173,8.173,0,1,0-10.448,12.571Z" transform="translate(123.733 282.417)"/><path class="b" d="M144.376,513.829c4.176,1.718,19.389-.859,19.389-.859s-9.022-12.532-13.181-14.246a8.174,8.174,0,1,0-6.208,15.122Z" transform="translate(133.983 233.168)"/><path class="b" d="M145.245,603.183c3.828,2.393,19.26,2.414,19.26,2.414s-6.762-13.877-10.586-16.252a8.173,8.173,0,1,0-8.674,13.855Z" transform="translate(132.784 181.84)"/><path class="c" d="M182.552,347.748c.348,4.5-6.784,18.186-6.784,18.186s-9.164-12.416-9.512-16.918a8.174,8.174,0,1,1,16.3-1.267Z" transform="translate(118.625 323.233)"/><path class="c" d="M219.126,397.322c-2.148,3.97-15.578,11.578-15.578,11.578s-.941-15.4,1.212-19.371a8.174,8.174,0,1,1,14.371,7.793Z" transform="translate(97.457 297.541)"/><path class="c" d="M220.81,492.5c-3.867,2.337-19.29,2.148-19.29,2.148s6.964-13.773,10.822-16.111a8.174,8.174,0,1,1,8.468,13.984Z" transform="translate(98.497 245.006)"/><path class="c" d="M209.534,569.748c-3.411,2.956-18.654,5.357-18.654,5.357s4.537-14.753,7.944-17.709a8.174,8.174,0,1,1,10.71,12.352Z" transform="translate(104.566 200.492)"/><path class="c" d="M160.229,426.224c3.471,2.887,18.761,4.966,18.761,4.966s-4.842-14.654-8.317-17.537a8.173,8.173,0,1,0-10.448,12.571Z" transform="translate(123.733 282.417)"/><path class="c" d="M144.376,513.829c4.176,1.718,19.389-.859,19.389-.859s-9.022-12.532-13.181-14.246a8.174,8.174,0,1,0-6.208,15.122Z" transform="translate(133.983 233.168)"/><path class="c" d="M145.245,603.183c3.828,2.393,19.26,2.414,19.26,2.414s-6.762-13.877-10.586-16.252a8.173,8.173,0,1,0-8.674,13.855Z" transform="translate(132.784 181.84)"/><path class="e" d="M216.27,646.443s-10.371-1.25-13.318-3.759S187.4,636.36,186.3,639.87s-17.215,16.4-5.486,17.55,27.457.6,30.735-1.023S216.27,646.443,216.27,646.443Z" transform="translate(112.737 153.118)"/><path class="f" d="M180.728,666.7c11.733,1.143,27.44.606,30.739-1.018,2.513-1.237,3.927-6.358,4.459-8.734l.348.043s-1.409,8.326-4.726,9.954-19.006,2.148-30.739,1.018c-3.385-.331-4.451-1.641-4.227-3.437C176.973,665.667,178.206,666.457,180.728,666.7Z" transform="translate(112.737 142.568)"/><path class="g" d="M517.473,135h-280.5A10.968,10.968,0,0,0,226,145.955V309.424a10.968,10.968,0,0,0,10.977,10.955H349.931v40.285H339.3a2.621,2.621,0,0,0-2.621,2.616v5.43h82.435v-5.439a2.621,2.621,0,0,0-2.621-2.616H402.924V320.366H517.473a10.968,10.968,0,0,0,10.977-10.942V145.955A10.968,10.968,0,0,0,517.473,135Z" transform="translate(84.534 440.28)"/><rect class="h" width="52.1" height="50.274" transform="translate(435.157 753.016)"/><rect class="i" width="52.1" height="4.459" transform="translate(435.157 798.831)"/><path class="h" d="M445.138,603h75.892a2.578,2.578,0,0,1,2.578,2.578v5.362H442.56v-5.362A2.578,2.578,0,0,1,445.138,603Z" transform="translate(-20.429 196.337)"/><rect class="h" width="297.359" height="182.63" rx="25.12" transform="translate(313.313 576.998)"/><rect class="j" width="284.212" height="149.197" transform="translate(319.573 598.329)"/><ellipse class="j" cx="2.505" cy="2.475" rx="2.505" ry="2.475" transform="translate(459.176 588.147)"/><rect class="i" width="51.936" height="0.98" transform="translate(435.268 759.753)"/><path class="k" d="M589.435,269.75A59.287,59.287,0,0,0,610.7,372.338L627.267,315.4Z" transform="translate(-110.518 363.421)"/><path class="k" d="M658.772,238a59.042,59.042,0,0,0-37.832,13.64l37.832,45.647L690.1,246.949A59,59,0,0,0,658.772,238Z" transform="translate(-140.734 381.531)"/><path class="l" d="M687.006,376,670.44,432.937a59.321,59.321,0,0,0,75.853-55.893Z" transform="translate(-168.968 302.817)"/><rect class="m" width="21.481" height="12.888" transform="translate(344.903 650.033)"/><rect class="n" width="21.481" height="12.888" transform="translate(344.903 672.373)"/><rect class="c" width="21.481" height="12.888" transform="translate(344.903 694.713)"/><rect class="k" width="40.384" height="5.155" transform="translate(377.983 653.9)"/><rect class="k" width="40.384" height="5.155" transform="translate(377.983 676.24)"/><rect class="k" width="40.384" height="5.155" transform="translate(377.983 698.58)"/><rect class="k" width="284.406" height="5.155" transform="translate(319.556 598.05)"/><circle class="n" cx="1.289" cy="1.289" r="1.289" transform="translate(321.704 599.338)"/><circle class="o" cx="1.289" cy="1.289" r="1.289" transform="translate(325.141 599.338)"/><circle class="p" cx="1.289" cy="1.289" r="1.289" transform="translate(328.578 599.338)"/><path class="c" d="M947.445,594.55s2.049,2.681-.945,6.728-5.465,7.462-4.468,9.989c0,0,4.52-7.518,8.2-7.621S951.5,599.069,947.445,594.55Z" transform="translate(-323.751 178.16)"/><path class="i" d="M947.612,594.55a3.317,3.317,0,0,1,.43.859c3.592,4.219,5.5,8.163,2.054,8.253-3.214.09-7.071,5.839-8,7.3a3.088,3.088,0,0,0,.107.331s4.52-7.518,8.2-7.621S951.663,599.069,947.612,594.55Z" transform="translate(-323.918 178.16)"/><path class="d" d="M963.172,601.694c0,.945-.107,1.719-.236,1.719s-.236-.765-.236-1.719.133-.5.262-.5S963.172,600.749,963.172,601.694Z" transform="translate(-335.668 174.431)"/><path class="d" d="M964.706,604.26c-.829.451-1.551.726-1.611.61s.558-.576,1.388-1.027.5-.125.563,0S965.535,603.809,964.706,604.26Z" transform="translate(-335.891 172.991)"/><path class="c" d="M923.619,594.55s-2.049,2.681.945,6.728,5.465,7.462,4.468,9.989c0,0-4.52-7.518-8.2-7.621S919.572,599.069,923.619,594.55Z" transform="translate(-310.751 178.16)"/><path class="i" d="M923.61,594.55a3.317,3.317,0,0,0-.43.859c-3.592,4.219-5.5,8.163-2.054,8.253,3.213.09,7.071,5.839,8,7.3a3.116,3.116,0,0,1-.107.331s-4.52-7.518-8.2-7.621S919.563,599.069,923.61,594.55Z" transform="translate(-310.743 178.16)"/><path class="d" d="M920.86,601.694c0,.945.107,1.719.236,1.719s.236-.765.236-1.719-.133-.5-.262-.5S920.86,600.749,920.86,601.694Z" transform="translate(-311.803 174.431)"/><path class="d" d="M917.151,604.26c.829.451,1.551.726,1.611.61s-.558-.576-1.388-1.027-.5-.125-.563,0S916.322,603.809,917.151,604.26Z" transform="translate(-309.4 172.991)"/><path class="e" d="M945.613,627.53s-5.637-1.126-7.14-2.629-8.27-4.133-9.022-2.255-10.148,8.27-3.759,9.4,15.037,1.5,16.914.752S945.613,627.53,945.613,627.53Z" transform="translate(-313.297 162.506)"/><path class="f" d="M925.692,638.639c6.388,1.126,15.037,1.5,16.914.752,1.431-.571,2.427-3.321,2.818-4.6l.189.039s-1.126,4.511-3.007,5.263-10.526.374-16.914-.752c-1.843-.327-2.371-1.091-2.174-2.058C923.677,637.909,924.322,638.4,925.692,638.639Z" transform="translate(-313.297 155.208)"/><path class="q" d="M795.442,391.866a64.4,64.4,0,0,0-30.391-54.716L731,391.866,795.442,393Z" transform="translate(-203.51 324.977)"/><path class="c" d="M796.287,392.7a59.244,59.244,0,0,0-27.959-50.338L737,392.7l59.287,1.061Z" transform="translate(-206.933 322.005)"/><path class="r" d="M940.106,257.446a2.343,2.343,0,0,0-.047-.477q-.047-.228-.086-.524-.094-.516-.211-1-.06-.241-.125-.473a12.787,12.787,0,0,0-2.487-4.846l-.2-.232q-.2-.223-.4-.43a5.064,5.064,0,0,0-.382-.369c-.125-.116-.249-.223-.365-.322-.236-.2-.456-.361-.653-.5s-.279-.189-.4-.258a2.195,2.195,0,0,0-.928-.309l-2.045-.206h0l-2.767-.275-9.993-3.944-.4.142a23.768,23.768,0,0,1-.739-2.5,2.226,2.226,0,0,0,.791-.584,1.83,1.83,0,0,0,.541-.709c.249-.589-.232-1.852-.133-2.578a12.52,12.52,0,0,1,1.229-3.321,15.651,15.651,0,0,0,1.654-7.162,8.109,8.109,0,0,0-3.282-6.358c-1.061-.713-2.311-1.1-3.411-1.749-.859-.507-1.615-1.169-2.436-1.74a13.782,13.782,0,0,0-13.748-1,64.53,64.53,0,0,0-5.8,3.841,9.635,9.635,0,0,1-6.556,1.839,1.5,1.5,0,0,0-.069.288l-.193-.026c-.4,1.1.571,2.174,1.465,2.921,1.693,1.418,3.609,2.831,5.817,2.883a6,6,0,0,1,2.53.193,2.254,2.254,0,0,1,.473.3,11.3,11.3,0,0,0,3.42,11.149l-5.1-1.865s-.215.112-.541.322l-7.084-4.79s-14.2-5.267-18.143,2.9,17.094,3.931,17.094,3.931l4.5,2.513a4.236,4.236,0,0,0,.494,2.741l12.274,7.712A65.652,65.652,0,0,1,896.4,254.6c-1.053,0-3.944,1.053-5.787,5.258s-8.416,24.72-14.2,28.136-21.051,26.3-21.051,26.3l.069.18q-.408.107-.8.241a16.155,16.155,0,0,0-7.926,6.079,2.578,2.578,0,0,0,1.779,4.064c6.015.773,9.31-2.045,10.891-4.176.1-.137.2-.275.288-.4a2.084,2.084,0,0,0,1.486.069l7.372-6.04s-5.744,5.757-2.384,11.011l-.258.365a84.35,84.35,0,0,0-12.347,27.289s-3.158,2.367-3.437,11.832-3.437,24.72-3.437,24.72-2.105,18.143-.791,23.668c0,0,.15.219.43.554-.1.12-.206.245-.327.378-1.147,1.259-3.218,3.007-5.628,2.483-3.682-.791-3.682,5.787,1.577,6.311a138.869,138.869,0,0,1,14.353,2.93,3.042,3.042,0,0,0,3.75-3.278,28.279,28.279,0,0,0-1.577-7.235c-.052-.125-.107-.249-.163-.369.155-.146.309-.3.464-.46,0,0,0-11.57,1.839-14.727,0,0,5-23.93,4.726-29.979-.206-4.726,12.962-23.161,18.693-30.932l-.047-.3c1.517-2.011,2.449-3.214,2.449-3.214l4.472,28.664s2.105,6.311,4.726,9.731c0,0,11.307,21.824,12.622,28.664a21.843,21.843,0,0,0,3.987,9.43c-.107.112-.223.223-.344.335a5.707,5.707,0,0,1-4.958,1.809c-3.682-.79-3.682,5.787,1.577,6.311a138.865,138.865,0,0,1,14.354,2.93,3.042,3.042,0,0,0,3.751-3.278c-.3-2.737-.885-6.139-2.019-8.163q-.146-.254-.3-.477a2.779,2.779,0,0,0,1.044-.748S918.479,394,918.479,389.51c0,0-2.891-17.094-12.622-23.405,0,0,.919-21.378,3.69-33.274q.1-.43.211-.859a77.051,77.051,0,0,0,7.673-1.624l.262-7.888,1.315,6.311,14.727-9.2s-.129-1.658-.378-4.2c-.125-1.289-.279-2.762-.464-4.382-.146-1.289-.314-2.668-.5-4.073q-.069-.528-.142-1.057c-.193-1.418-.4-2.853-.632-4.253q-.129-.791-.266-1.564c-.12-.687-.245-1.362-.374-2.015q-.1-.49-.2-.967t-.2-.937q-.1-.46-.211-.9l-.107-.43q-.107-.43-.219-.833a15.281,15.281,0,0,1-.533-3.437q-.026-.7,0-1.388a12.555,12.555,0,0,1,.129-1.383q.047-.344.112-.687a15.829,15.829,0,0,1,.747-2.685q.245-.657.55-1.289c.477-.992.988-2.071,1.512-3.2q.4-.859.8-1.74t.808-1.8c2.578-5.8,5.087-12.257,5.761-16.5.073-.43.12-.859.15-1.263a8.588,8.588,0,0,0,.026-1.13Z" transform="translate(-264.399 395.019)"/><path class="s" d="M938.19,267.06l-8.674-5.869s-13.773-5.1-17.614,2.805,16.579,3.828,16.579,3.828l8.674,4.846Z" transform="translate(-306.419 369.226)"/><path class="t" d="M1009.6,675.568a134.8,134.8,0,0,0-13.924-2.84c-5.1-.511-5.1-6.874-1.529-6.122,1.938.43,3.652-.67,4.812-1.753a11.266,11.266,0,0,0,1.014-1.083,2.948,2.948,0,0,1,1.65-1.01c1.912-.43,5.894-1.048,8.343.271a3.6,3.6,0,0,1,1.319,1.448c1.1,1.951,1.671,5.25,1.959,7.9a2.951,2.951,0,0,1-3.643,3.183Z" transform="translate(-352.171 139.554)"/><path class="t" d="M859.4,681.508a134.777,134.777,0,0,0-13.924-2.84c-5.1-.511-5.1-6.874-1.529-6.122,2.337.5,4.348-1.186,5.46-2.406.133-.15.258-.292.365-.43a2.947,2.947,0,0,1,1.65-1.01c1.912-.43,5.894-1.048,8.343.271a4.558,4.558,0,0,1,1.748,2.333,26.983,26.983,0,0,1,1.529,7.02,2.951,2.951,0,0,1-3.643,3.183Z" transform="translate(-266.5 136.166)"/><path class="i" d="M872.082,671.293c-6.092,6.277-11.312-.116-12.1-1.173.133-.15.258-.292.365-.43a2.947,2.947,0,0,1,1.65-1.01c1.912-.43,5.894-1.048,8.343.271A4.615,4.615,0,0,1,872.082,671.293Z" transform="translate(-277.078 136.177)"/><path class="i" d="M1021,664.474c-2.638,1.8-11.522,1.358-11.522,1.358a8.754,8.754,0,0,1-.8-.988,11.242,11.242,0,0,0,1.014-1.083,2.947,2.947,0,0,1,1.65-1.01c1.912-.43,5.894-1.048,8.343.271A3.6,3.6,0,0,1,1021,664.474Z" transform="translate(-361.895 139.56)"/><path class="u" d="M935.942,550.91c-1.787,2.294-11.986,1.787-11.986,1.787s-3.059-3.059-4.335-9.692S907.4,515.2,907.4,515.2c-2.552-3.317-4.593-9.452-4.593-9.452l-4.335-27.8S877.536,505.5,877.79,511.376s-4.593,29.076-4.593,29.076c-1.787,3.059-1.787,14.285-1.787,14.285-6.633,6.874-12.244-1.289-12.244-1.289-1.289-5.357.765-22.954.765-22.954s3.059-14.792,3.317-23.977,3.338-11.466,3.338-11.466A81.811,81.811,0,0,1,878.563,468.6a42.3,42.3,0,0,1,2.578-3.385l41.295,4.846a26.093,26.093,0,0,0-1.779,5.473c-2.685,11.539-3.579,32.277-3.579,32.277,9.452,6.122,12.244,22.7,12.244,22.7C929.309,534.842,935.942,550.91,935.942,550.91Z" transform="translate(-276.372 251.933)"/><g class="v" transform="translate(588.242 717.139)"><path d="M903.97,498.288l-.528-3.4s-20.9,27.543-20.66,33.416-4.593,29.076-4.593,29.076c-1.787,3.059-1.787,14.285-1.787,14.285a8.751,8.751,0,0,1-3.991,2.578c2.011.528,4.451.142,7.054-2.578,0,0,0-11.222,1.787-14.285,0,0,4.846-23.2,4.593-29.076C885.642,523.721,898.415,505.837,903.97,498.288Z" transform="translate(-872.41 -482.135)"/><path d="M959.238,530.5s-2.805-16.579-12.244-22.7c0,0,.894-20.733,3.579-32.277a26.093,26.093,0,0,1,1.779-5.473l-41.32-4.846-.271.327,38.532,4.52a26.086,26.086,0,0,0-1.779,5.473c-2.685,11.539-3.579,32.277-3.579,32.277,9.452,6.122,12.244,22.7,12.244,22.7,0,4.335,6.633,20.407,6.633,20.407-1.053,1.353-5.031,1.718-8.115,1.813,2.449.064,9.7.086,11.17-1.813C965.854,550.9,959.238,534.836,959.238,530.5Z" transform="translate(-894.284 -465.2)"/></g><path class="s" d="M874.472,451.135a9.235,9.235,0,0,1-1.207,2.114c-1.534,2.066-4.726,4.8-10.564,4.051a2.509,2.509,0,0,1-1.719-3.944,15.714,15.714,0,0,1,7.69-5.894,13.856,13.856,0,0,1,3.256-.662Z" transform="translate(-277.384 262.434)"/><path class="w" d="M985.765,280.93l-20.454-7.48s-5.869,3.059-3.57,7.4l19.9,12.5Z" transform="translate(-334.817 361.31)"/><path class="i" d="M985.765,280.93l-20.454-7.48s-5.869,3.059-3.57,7.4l19.9,12.5Z" transform="translate(-334.817 361.31)"/><path class="s" d="M1005.427,261.49s-.254,11.986,5.1,16.068-15.561,6.375-15.561,6.375,3.317-12.244,0-18.62S1005.427,261.49,1005.427,261.49Z" transform="translate(-353.778 368.42)"/><path class="i" d="M948.741,470.067a26.089,26.089,0,0,0-1.779,5.473c-24.669,3.768-41.836-6.5-41.836-6.5-.094-.146-.185-.3-.266-.43a42.308,42.308,0,0,1,2.578-3.385Z" transform="translate(-302.677 251.922)"/><path class="i" d="M885.294,451.135a9.237,9.237,0,0,1-1.207,2.114c-2.363-.391-4.249-4.906-4.6-5.787a13.856,13.856,0,0,1,3.257-.662Z" transform="translate(-288.207 262.434)"/><path class="w" d="M942.837,287.1l-9.181,3.317-3.828,5.1s-7.9,2.552-8.927,2.552-3.828,1.018-5.611,5.1-8.163,23.977-13.773,27.294-20.407,25.506-20.407,25.506,2.552,6.874,5.611,5.869l7.144-5.869s-5.611,5.611-2.294,10.715c0,0,20.914,12.5,49.737,4.846l.253-7.651L942.85,370l14.255-8.932s-1.289-16.463-3.583-24.845a15.14,15.14,0,0,1,.984-10.556c3.7-7.733,9.417-20.622,8.721-25.309-.821-5.538-3.952-7.944-5.155-8.674a2.148,2.148,0,0,0-.9-.3l-4.644-.464Z" transform="translate(-289.131 353.525)"/><path class="x" d="M945.946,346.76s-5.1,23.732-10.715,27.547-20.66,16.068-21.171,18.108" transform="translate(-307.925 319.495)"/><path class="w" d="M940.6,345s-5.1,23.715-10.71,27.538-20.66,16.068-21.171,18.108" transform="translate(-304.879 320.499)"/><path class="i" d="M994.21,300.3s17.614-5.869,22.7-4.335" transform="translate(-353.641 348.616)"/><g class="v" transform="translate(652.847 640.625)"><path d="M1036.075,331.107c3.7-7.733,9.417-20.622,8.721-25.309-.821-5.538-3.952-7.944-5.155-8.674a2.149,2.149,0,0,0-.9-.3l-1.985-.2a2.094,2.094,0,0,1,.589.241c1.194.73,4.326,3.132,5.155,8.674.7,4.7-5.018,17.588-8.721,25.309a15.139,15.139,0,0,0-.984,10.556c2.3,8.378,3.583,24.845,3.583,24.845l-12.3,7.686.314,1.5,14.259-8.932s-1.289-16.463-3.583-24.845A15.138,15.138,0,0,1,1036.075,331.107Z" transform="translate(-1023.526 -292.536)"/><path d="M987.847,237.14l2.208.223-9.606-3.793-.859.309Z" transform="translate(-979.59 -233.57)"/></g><path class="x" d="M982.93,397.83s7.905-4.335,10.457-3.317,11.986-.253,11.986-.253" transform="translate(-347.207 292.402)"/><path class="x" d="M1004.6,266.049c-.292-2.578.894-2.148.894-2.148s-13.782-2.569-10.474,3.806a14.692,14.692,0,0,1,1.418,5.611h.129C1000.389,273.318,1002.623,269.039,1004.6,266.049Z" transform="translate(-353.81 367.049)"/><circle class="s" cx="10.968" cy="10.968" r="10.968" transform="translate(631.77 617.412)"/><path class="i" d="M983.728,241.171a15.173,15.173,0,0,0,1.6-6.947,7.878,7.878,0,0,0-3.184-6.169c-1.031-.692-2.243-1.065-3.308-1.7-.833-.494-1.568-1.134-2.363-1.688a13.37,13.37,0,0,0-13.352-.971,65.367,65.367,0,0,0-5.628,3.725,9.361,9.361,0,0,1-6.363,1.783c-.382,1.061.554,2.109,1.422,2.835,1.641,1.375,3.5,2.75,5.641,2.8a5.761,5.761,0,0,1,2.453.189,3.523,3.523,0,0,1,1.254,1.164,22.8,22.8,0,0,1,2.6,4.412,3.721,3.721,0,0,0,1.164,1.718c.984.632,2.264.107,3.437.06,1.817-.069,3.437,1.074,4.794,2.294s2.625,2.621,4.322,3.265c1.289.481,3.8.464,4.447-1.048.245-.571-.223-1.8-.129-2.492A11.2,11.2,0,0,1,983.728,241.171Z" transform="translate(-329.021 390.453)"/><path class="y" d="M984.318,240.581a15.173,15.173,0,0,0,1.6-6.947,7.877,7.877,0,0,0-3.183-6.169c-1.031-.692-2.243-1.065-3.308-1.7-.833-.494-1.568-1.134-2.363-1.688a13.37,13.37,0,0,0-13.352-.971,65.37,65.37,0,0,0-5.628,3.725,9.36,9.36,0,0,1-6.363,1.783c-.382,1.061.554,2.109,1.422,2.835,1.641,1.375,3.5,2.75,5.641,2.8a5.761,5.761,0,0,1,2.453.189,3.524,3.524,0,0,1,1.255,1.164,22.8,22.8,0,0,1,2.616,4.408,3.722,3.722,0,0,0,1.164,1.718c.984.632,2.264.107,3.437.06,1.817-.069,3.437,1.074,4.794,2.294s2.625,2.621,4.322,3.265c1.289.481,3.8.464,4.447-1.048.245-.571-.223-1.8-.129-2.492A11.276,11.276,0,0,1,984.318,240.581Z" transform="translate(-329.357 390.789)"/></g></svg>