<svg xmlns="http://www.w3.org/2000/svg" xmlns:xlink="http://www.w3.org/1999/xlink" viewBox="0 0 398.345 316.206"><defs><style>.a{fill:url(#a);}.b{fill:#fff;}.c{opacity:0.6;}.d{fill:#751d75;}.e{fill:url(#b);}.f{fill:url(#c);}.g{fill:#00add7;}.h{fill:url(#d);}.i{fill:url(#e);}.j{fill:#f5f5f5;}</style><linearGradient id="a" x1="0.508" y1="0.468" x2="0.508" y2="-0.532" gradientUnits="objectBoundingBox"><stop offset="0" stop-color="gray" stop-opacity="0.251"/><stop offset="0.54" stop-color="gray" stop-opacity="0.122"/><stop offset="1" stop-color="gray" stop-opacity="0.102"/></linearGradient><linearGradient id="b" x1="-6.39" y1="0.315" x2="-6.39" y2="-0.3" xlink:href="#a"/><linearGradient id="c" x1="-7.004" y1="0.126" x2="-7.004" y2="-0.489" xlink:href="#a"/><linearGradient id="d" x1="-0.757" y1="0.537" x2="-0.757" y2="-0.463" xlink:href="#a"/><linearGradient id="e" x1="0.5" y1="1" x2="0.5" y2="0" xlink:href="#a"/></defs><g transform="translate(-1168 -259)"><rect class="a" width="115.127" height="70.752" transform="translate(1168 452.578) rotate(-16.6)"/><rect class="b" width="111.225" height="66.031" transform="translate(1169.854 453.856) rotate(-16.6)"/><g class="c" transform="translate(1175.938 453.237)"><rect class="d" width="14.15" height="10.471" transform="translate(16.551 10.035) rotate(163.4)"/><rect class="d" width="54.338" height="3.394" transform="translate(72.008 14.762) rotate(163.4)"/><rect class="d" width="39.621" height="2.264" transform="translate(74.111 21.809) rotate(163.4)"/></g><rect class="e" width="70.752" height="115.127" transform="translate(1436.73 328.448) rotate(-78.98)"/><rect class="b" width="66.031" height="111.225" transform="translate(1438.68 325.815) rotate(-78.98)"/><g class="c" transform="translate(1453.062 266.853)"><rect class="d" width="14.15" height="10.471" transform="translate(13.889 12.983) rotate(-168.98)"/><rect class="d" width="54.338" height="3.394" transform="translate(60.833 42.888) rotate(-168.98)"/><rect class="d" width="39.621" height="2.264" transform="translate(59.429 50.113) rotate(-168.98)"/></g><rect class="f" width="70.752" height="115.127" transform="translate(1455.621 424.276) rotate(-23.45)"/><rect class="b" width="66.031" height="111.225" transform="translate(1458.893 424.394) rotate(-23.45)"/><g class="c" transform="translate(1492.184 404.546)"><rect class="g" width="14.15" height="10.471" transform="translate(20.602 17.148) rotate(-113.45)"/><rect class="g" width="54.338" height="3.394" transform="translate(22.516 72.771) rotate(-113.45)"/><rect class="g" width="39.621" height="2.264" transform="translate(15.767 75.696) rotate(-113.45)"/></g><rect class="h" width="115.127" height="70.752" transform="translate(1198.734 297.981) rotate(-19.53)"/><rect class="b" width="111.225" height="66.031" transform="translate(1200.655 299.172) rotate(-19.53)"/><g class="c" transform="translate(1206.871 297.572)"><rect class="g" width="14.15" height="10.471" transform="translate(16.836 9.869) rotate(160.47)"/><rect class="g" width="54.338" height="3.394" transform="translate(72.461 11.762) rotate(160.47)"/><rect class="g" width="39.621" height="2.264" transform="translate(74.92 18.693) rotate(160.47)"/></g><path class="i" d="M276.7,9.21,142.66,135.394V321.2H410.733V135.394Z" transform="translate(1090.617 254.001)"/><path class="b" d="M410.985,319.814H145.63V137.777L278.31,14.16,410.985,137.777Z" transform="translate(1089.006 251.316)"/><rect class="i" width="184.749" height="217.353" transform="translate(1274.939 290.833)"/><rect class="b" width="180.083" height="215.541" transform="translate(1277.272 292.645)"/><path class="j" d="M145.63,284.38,278.31,375.4,145.63,466.416Z" transform="translate(1089.006 104.713)"/><path class="j" d="M568.335,284.38,435.66,375.4l132.675,91.018Z" transform="translate(931.656 104.713)"/><path class="i" d="M310.28,666.937l127.469-99.175a8.413,8.413,0,0,1,10.408,0l127.478,99.175Z" transform="translate(924.356 -95.812)"/><path class="b" d="M310.28,672.169l127.469-94.843a8.72,8.72,0,0,1,10.408,0l127.478,94.843Z" transform="translate(924.356 -101.044)"/><rect class="g" width="37.586" height="6.341" transform="translate(1304.597 334.302)"/><rect class="j" width="125.434" height="6.341" transform="translate(1304.597 351.059)"/><rect class="j" width="125.434" height="6.341" transform="translate(1304.597 361.924)"/><rect class="j" width="125.434" height="6.341" transform="translate(1304.597 372.794)"/><rect class="j" width="125.434" height="6.341" transform="translate(1304.597 383.658)"/><rect class="j" width="57.056" height="6.341" transform="translate(1304.597 394.528)"/><rect class="g" width="57.056" height="6.341" transform="translate(1372.974 394.528)"/></g></svg>