<svg xmlns="http://www.w3.org/2000/svg" xmlns:xlink="http://www.w3.org/1999/xlink" viewBox="0 0 307.555 305.651"><defs><style>.a{fill:url(#a);}.b{fill:#eceff1;}.c{fill:url(#b);}.d{fill:#00add7;}.e{fill:#32e7fc;}.f,.o{opacity:0.2;}.g{fill:#ffcc80;}.h{fill:url(#d);}.i{fill:#faf8e4;}.j{opacity:0.6;}.k{fill:url(#e);}.l{fill:url(#f);}.m{fill:#fff;}.n{fill:url(#g);}.o{fill:#751d75;}.p{fill:url(#h);}.q{fill:url(#i);}</style><linearGradient id="a" x1="0.5" y1="1" x2="0.5" gradientUnits="objectBoundingBox"><stop offset="0" stop-color="gray" stop-opacity="0.251"/><stop offset="0.54" stop-color="gray" stop-opacity="0.122"/><stop offset="1" stop-color="gray" stop-opacity="0.102"/></linearGradient><linearGradient id="b" x1="0" y1="0.5" x2="1" y2="0.5" xlink:href="#a"/><linearGradient id="d" x1="-1.487" y1="0.893" x2="-1.487" y2="0.279" xlink:href="#a"/><linearGradient id="e" x1="-2.825" y1="0.844" x2="-2.825" y2="0.229" xlink:href="#a"/><linearGradient id="f" x1="-0.315" y1="0.895" x2="-0.315" y2="0.281" xlink:href="#a"/><linearGradient id="g" x1="-1.653" y1="0.845" x2="-1.653" y2="0.231" xlink:href="#a"/><linearGradient id="h" x1="-0.341" y1="5.17" x2="-0.341" y2="4.346" xlink:href="#a"/><linearGradient id="i" x1="2.396" y1="7.371" x2="2.396" y2="6.327" xlink:href="#a"/></defs><g transform="translate(-806 -616.319)"><rect class="a" width="31.204" height="137.549" transform="translate(951.184 784.421)"/><rect class="b" width="26.277" height="135.087" transform="translate(954.056 784.421)"/><path class="c" d="M465.258,228.64H324.729a37.293,37.293,0,0,0-14.017,3.124c-14.285,6.331-22.6,16.269-24.948,38.307v50.915l-37.237-.394c-7.489,0-10.227,11.774-10.227,19.732H489.837V254.758C489.837,240.334,478.848,228.64,465.258,228.64Z" transform="translate(589.721 448.615)"/><path class="d" d="M270.85,158.06H410.088a17.057,17.057,0,0,1,17.057,17.057v84.772H270.85Z" transform="translate(648.715 524.532)"/><path class="e" d="M210.684,158.06h0a37.774,37.774,0,0,1,37.774,37.774V241.4a18.487,18.487,0,0,1-18.487,18.487H191.4A18.487,18.487,0,0,1,172.91,241.4V195.834A37.774,37.774,0,0,1,210.684,158.06Z" transform="translate(705.59 524.532)"/><path class="f" d="M210.684,158.06h0a37.774,37.774,0,0,1,37.774,37.774V241.4a18.487,18.487,0,0,1-18.487,18.487H191.4A18.487,18.487,0,0,1,172.91,241.4V195.834A37.774,37.774,0,0,1,210.684,158.06Z" transform="translate(705.59 524.532)"/><path class="a" d="M459.724,125.75h-31.2v51.732h14.164V148.941h17.04Z" transform="translate(557.155 543.295)"/><path class="g" d="M460.667,125.75H434.39v47.627h9.853V147.1h16.424Z" transform="translate(553.746 543.295)"/><rect class="h" width="32.151" height="52.315" transform="matrix(0.121, -0.993, 0.993, 0.121, 874.92, 733.948)"/><rect class="i" width="30.005" height="50.541" transform="matrix(0.121, -0.993, 0.993, 0.121, 875.721, 732.688)"/><g class="j" transform="translate(880.663 705.444)"><rect class="e" width="6.432" height="4.759" transform="matrix(-0.993, -0.121, 0.121, -0.993, 6.385, 5.501)"/><rect class="e" width="24.692" height="1.543" transform="matrix(-0.993, -0.121, 0.121, -0.993, 28.629, 17.534)"/><rect class="e" width="18.004" height="1.027" transform="matrix(-0.993, -0.121, 0.121, -0.993, 28.226, 20.854)"/></g><rect class="k" width="32.151" height="52.315" transform="matrix(0.121, -0.993, 0.993, 0.121, 896.08, 740.969)"/><rect class="i" width="30.005" height="50.541" transform="matrix(0.121, -0.993, 0.993, 0.121, 896.881, 739.712)"/><g class="j" transform="translate(901.826 712.47)"><rect class="e" width="6.432" height="4.759" transform="matrix(-0.993, -0.121, 0.121, -0.993, 6.385, 5.501)"/><rect class="e" width="24.692" height="1.543" transform="matrix(-0.993, -0.121, 0.121, -0.993, 28.629, 17.534)"/><rect class="e" width="18.004" height="1.027" transform="matrix(-0.993, -0.121, 0.121, -0.993, 28.218, 20.854)"/></g><rect class="l" width="43.581" height="70.911" transform="matrix(0.121, -0.993, 0.993, 0.121, 849.74, 755.315)"/><rect class="m" width="40.675" height="68.508" transform="matrix(0.121, -0.993, 0.993, 0.121, 850.828, 753.604)"/><g class="j" transform="translate(857.527 716.677)"><rect class="e" width="8.717" height="6.449" transform="matrix(-0.993, -0.121, 0.121, -0.993, 8.653, 7.455)"/><rect class="e" width="33.472" height="2.092" transform="matrix(-0.993, -0.121, 0.121, -0.993, 38.802, 23.769)"/><rect class="e" width="24.407" height="1.396" transform="matrix(-0.993, -0.121, 0.121, -0.993, 38.258, 28.267)"/></g><rect class="n" width="43.581" height="70.911" transform="matrix(0.121, -0.993, 0.993, 0.121, 878.423, 764.831)"/><rect class="m" width="40.675" height="68.508" transform="matrix(0.121, -0.993, 0.993, 0.121, 879.506, 763.128)"/><g class="j" transform="translate(886.209 726.2)"><rect class="e" width="8.717" height="6.449" transform="matrix(-0.993, -0.121, 0.121, -0.993, 8.653, 7.455)"/><rect class="e" width="33.472" height="2.092" transform="matrix(-0.993, -0.121, 0.121, -0.993, 38.802, 23.769)"/><rect class="e" width="24.407" height="1.396" transform="matrix(-0.993, -0.121, 0.121, -0.993, 38.257, 28.267)"/></g><path class="f" d="M427.873,242.35h0a37.652,37.652,0,0,0-14.4,2.851,38.056,38.056,0,0,1,5.371-.386h0a37.774,37.774,0,0,1,37.774,37.774v59.959h9.032V280.124A37.774,37.774,0,0,0,427.873,242.35Z" transform="translate(487.999 440.653)"/><path class="e" d="M76.391,369.58h108.4v13.141H63.25A13.141,13.141,0,0,1,76.391,369.58Z" transform="translate(769.27 401.701)"/><path class="o" d="M76.391,369.58h108.4v13.141H63.25A13.141,13.141,0,0,1,76.391,369.58Z" transform="translate(769.27 401.701)"/><path class="p" d="M655.645,29.594,654.4,30.2l.142-.256-.109.034.155-.113L671.369,0l8.579,7.317,7.363,6.813L685.2,15.162l2.373,4.189Z" transform="translate(425.984 616.319)"/><path class="e" d="M680.4,19.31l6.725,6.239L656.63,40.706l16.227-20.8Z" transform="translate(424.69 605.105)"/><path class="f" d="M680.4,19.31l6.725,6.239L656.63,40.706l16.227-20.8Z" transform="translate(424.69 605.105)"/><path class="d" d="M672.546,3.35,656.63,31.438l23.765-21.4Z" transform="translate(424.69 614.373)"/><path class="d" d="M687.364,33.232,656.71,43.358,682.333,24.23Z" transform="translate(424.643 602.248)"/><path class="q" d="M51.015,39.033l2,.31-.31-.293h.172l-.268-.092L16.193,4.42,7.354,18.37,0,31.1l3.4.528L1.9,38.517Z" transform="translate(806 613.752)"/><path class="e" d="M11.877,36.063,5.16,47.707,54.4,55.724,22.686,33.64Z" transform="translate(803.004 596.784)"/><path class="f" d="M11.877,36.063,5.16,47.707,54.4,55.724,22.686,33.64Z" transform="translate(803.004 596.784)"/><path class="d" d="M29.268,8.99,63.7,41.41,21.18,21.749Z" transform="translate(793.701 611.098)"/><path class="d" d="M9.49,63.046l47.292.906L12.635,48.27Z" transform="translate(800.489 588.288)"/></g></svg>