<svg xmlns="http://www.w3.org/2000/svg" xmlns:xlink="http://www.w3.org/1999/xlink" viewBox="0 0 707.87 425.58"><defs><style>.a,.z{fill:#32e7fc;}.a,.f{opacity:0.1;}.b{fill:#3a3768;}.c{fill:#751d75;}.d{opacity:0.05;}.e{fill:#efc6cd;}.g{fill:#fff;}.h{fill:#d3dae1;}.i{fill:url(#a);}.j{fill:#585b8a;}.k{opacity:0.2;}.l{fill:#636992;}.m{fill:#ffd6d6;}.n{fill:#dce6f2;}.o{fill:#565988;}.p{fill:#505484;}.q{fill:#575988;}.r{fill:#d28690;}.s{fill:#575989;}.t{fill:#353045;}.u{fill:#f0f3f7;}.v{fill:#663d5c;}.w{fill:#00add7;}.x{opacity:0.3;}.y{opacity:0.15;}.aa{fill:#ffd037;}.ab{fill:#65617d;}.ac{fill:#9d9cb5;}.ad{fill:#4b4770;}.ae{fill:#d4dfec;}</style><linearGradient id="a" x1="0.5" y1="1" x2="0.5" gradientUnits="objectBoundingBox"><stop offset="0" stop-color="gray" stop-opacity="0.251"/><stop offset="0.54" stop-color="gray" stop-opacity="0.122"/><stop offset="1" stop-color="gray" stop-opacity="0.102"/></linearGradient></defs><g transform="translate(-904.226 -377)"><ellipse class="a" cx="43.317" cy="142.549" rx="43.317" ry="142.549" transform="translate(1268.256 642.25) rotate(-78.45)"/><path class="b" d="M828.56,403.606s7.582-37.216,36.529-33.768c0,0,20.005,1.374,24.119,14.47v28.947Z" transform="translate(571.929 103.1)"/><path class="c" d="M866.859,394.882,609.082,373.51,576,380.405l2.067,46.178,2.254.273,2.567,69.344,252.95,45.485,26.887-22.746V443.767l3.441-2.02Z" transform="translate(692.156 125.614)"/><path class="d" d="M998.234,405.56l-.693,46.865-27.914,13.1-.347-48.939Z" transform="translate(561.128 114.936)"/><path class="d" d="M992.72,478.94l.34,73.752-26.88,22.746,1.727-85.468Z" transform="translate(562.161 90.489)"/><path class="d" d="M582.9,456.477l257.451,31.414.133-5.961L582.71,454.13Z" transform="translate(689.921 98.754)"/><path class="d" d="M993.236,481.647V478.94L967.73,490.2v5.975Z" transform="translate(561.645 90.489)"/><path class="e" d="M575.48,380.405l33.082-6.9,257.777,21.372L837.392,405.9Z" transform="translate(692.329 125.614)"/><path class="f" d="M960.991,407.55l12.65.827-20.965,6.275L942,413.885Z" transform="translate(570.217 114.273)"/><path class="g" d="M960.991,406.72l12.65.827-20.965,6.282L942,413.055Z" transform="translate(570.217 114.55)"/><path class="h" d="M1022.32,444.53c.5-.213,1.027.193,1.561.293.307.06.62,0,.927.06.62.08,1.234.493,1.827.287" transform="translate(507.375 78.161)"/><path class="h" d="M1021.34,445.1c.494-.213,1.027.187,1.561.293.307.053.62,0,.927.053.62.087,1.234.5,1.827.293" transform="translate(507.701 77.971)"/><path class="h" d="M1019.08,446.239c.5-.213,1.034.187,1.567.287.3.06.62,0,.92.06.627.087,1.24.5,1.827.287" transform="translate(508.454 77.591)"/><path class="f" d="M878.991,398.21l12.65.833-20.965,6.275L860,404.545Z" transform="translate(597.537 117.385)"/><path class="g" d="M878.991,397.39l12.65.827-20.965,6.275L860,403.725Z" transform="translate(597.537 117.658)"/><path class="h" d="M940.32,435.2c.5-.213,1.027.187,1.561.293.307.053.62,0,.927.053.62.087,1.234.5,1.827.293" transform="translate(534.695 81.27)"/><path class="h" d="M939.34,435.769c.494-.213,1.027.187,1.561.287.307.06.62,0,.927.06.62.087,1.234.5,1.827.287" transform="translate(535.021 81.08)"/><path class="h" d="M937.08,436.9c.5-.213,1.034.193,1.567.293.3.06.62,0,.92.06.627.08,1.24.5,1.827.287" transform="translate(535.774 80.703)"/><path class="f" d="M918.321,402.88l12.656.827-20.965,6.282-10.683-.774Z" transform="translate(584.433 115.829)"/><path class="g" d="M918.321,402.06l12.656.827-20.965,6.275-10.683-.773Z" transform="translate(584.433 116.102)"/><path class="h" d="M979.65,439.869c.5-.213,1.034.187,1.567.287.3.06.614,0,.92.06.62.08,1.24.5,1.827.287" transform="translate(521.591 79.714)"/><path class="h" d="M978.67,440.43c.5-.213,1.034.193,1.567.293.3.06.613,0,.92.06.62.08,1.24.5,1.827.287" transform="translate(521.918 79.527)"/><path class="h" d="M976.42,441.569c.493-.213,1.027.187,1.56.293.307.053.62,0,.927.053.62.087,1.234.5,1.827.293" transform="translate(522.667 79.147)"/><ellipse class="a" cx="135.02" cy="27.794" rx="135.02" ry="27.794" transform="translate(1081.336 722.187)"/><path class="i" d="M645.394,371.456c-1.44-12.656-7.142-24.733-7.142-24.733l.433-4.268s.093-2.134-.047-5.335a24.275,24.275,0,0,1,.78-5.922c1.167-3.7-1.46-8.249-1.754-8.669s.147-8.535-2.481-12.516-20.125-11.383-20.125-11.383-.94-1.967-2.267-4.268l.12-.233a25.072,25.072,0,0,0-4-5.395c-1.074-1.147-2.107-1.8-2.941-1.48a24.005,24.005,0,0,1-.773-3.381c.173.047.353.093.527.127a5.442,5.442,0,0,0,2.2.053c1.627-.367,2.707-1.827,3.614-3.2,4.521-6.868,8.415-14.4,9.209-22.532a14.325,14.325,0,0,0-.233-4.975,16.785,16.785,0,0,0-1.56-3.634,29.206,29.206,0,0,0-4.4-6.488,25.071,25.071,0,0,0-11.823-6.475,40.929,40.929,0,0,0-15.27-1.14c-1.334.153-2.667.373-4,.46a41.569,41.569,0,0,1-5.075-.087l-8.729-.507-.04-.133-1.454-.087c-.573,1.14,0,2.494.714,3.561s1.534,2.181,1.474,3.441-.974,2.274-1.687,3.334-1.254,2.447-.54,3.488a2,2,0,0,0,.354.387,4.4,4.4,0,0,0,3.207.854h.2a21.719,21.719,0,0,0-4.421,13.15,22.112,22.112,0,0,0,12.063,19.592c.127.433.253.88.373,1.334a40.849,40.849,0,0,1,1.4,14.417l-.153.333-.093-.353s-10.283,6.975-13.337,8.822-6.122,8.109-6.268,9.816-4.961,27.453-4.961,27.453a63.066,63.066,0,0,0-2.414,7.949l-6.142,5.395s-12.67,1.14-16.337.287l.107.707a55.409,55.409,0,0,0-9.842-1.334,10.436,10.436,0,0,0-5.335.714l-.127.06-.1.047a21.137,21.137,0,0,0-5.6,1.574c-.213.087-.407.173-.594.26l.04-.874-13.71-.707-7-1.42s-2.481-2-3.941-1.707-4.521-1.707-4.521-1.707a12.216,12.216,0,0,0-2.254-1.4c-.233-1.614-.38-2.594-.38-2.594s-5.448-21.619-9.529-34.329c-2.734-8.489-6.668-12.67-8.989-14.49-1.034-1.8-1.714-2.961-1.714-2.961-.447-1.56-2.9-5.075-3.528-5.161-.1-.16-.173-.24-.213-.24a.781.781,0,0,0-.393.06c-1.147-5.708-1.814-12.863-.06-19.1a21.078,21.078,0,0,0,7.7-16.244q0-.14,0-.28V257.1a20.985,20.985,0,0,0-4.955-13.537l-.227-.253a1.776,1.776,0,0,0,.173-.14,3.574,3.574,0,0,0,1.26-3.441c-.3-1.28-1.3-2.287-1.814-3.5a22.673,22.673,0,0,1-.74-2.854,8.8,8.8,0,0,0-2.1-3.661l.1.267a12.672,12.672,0,0,0-11.156-3.748c-3.007.48-5.808,1.88-8.829,2.314-2.167.307-4.374.107-6.555.327a17.012,17.012,0,0,0-5.815,1.68,3.334,3.334,0,0,0-1.234.907,4.88,4.88,0,0,0-.614,1.714c-.74,2.7-3.087,4.628-4.788,6.882a16.1,16.1,0,0,0-3.227,8.9,6.962,6.962,0,0,0,.233,2.434c.147.473.373.92.48,1.4.333,1.467-.433,2.927-.807,4.381a8.528,8.528,0,0,0,.473,5.561c2.634,5.895,11.283,7.862,13.083,14.05a17.214,17.214,0,0,0,4.328,1.334c.12.614.227,1.234.313,1.86a.5.5,0,0,0-.113.067c-2.334,2.274-2.914,6.668-2.914,6.668l-.28.227c-.954.787-4.214,3.428-7.162,5.461-3.5,2.421-9.336,10.529-13.417,12.95s-7.442,17.338-6.562,22.759,4.521,20.625,3.061,26.173,2.187,30.868,2.187,30.868a37.28,37.28,0,0,1,7.148,2.121l-.073,1.107-.22,3.334s-6.608,23.9-4.081,42.3-1.167,20.292-1.167,20.292.774,8.155-1.167,11-2.334,9.1-2.334,9.1-.193,14.037.193,18,.58,11.2-.78,12.9-3.888,12.89-3.694,16.3-4.861,11.2-2.141,21.245-8,10.242-8,10.242,1.367,15.337,4.281,19.725l.427.627c-.073.253-.147.52-.227.807-1.1,4-2.607,10.316-1.56,11.843,1.554,2.281,2.334,1.894,2.334,1.894l.58,10.243s11.67,9.862,20.618,9.489,7.2-9.489,7.2-9.489L413.7,578.474l-.26-.667,8.469-16s2.334-7.015,2.914-9.482,3.747-11.21,3.747-11.21,8-18.965,8.169-21.245.78-14.6,2.334-17.071,5.835-16.671,5.835-16.671l.107.093a5.621,5.621,0,0,1,1.454,5.595c-.98,3.6-.393,11-.393,11A74.8,74.8,0,0,1,444.9,512.3c-.78,3.227-.967,29.587.393,35.842,1.087,5.008,1.054,14.384,1,17.931-.914,3.768-1.714,8.449-.227,9,2.534.954,15.37.76,15.37.76s5.441-1.9,12.837,4.741,30.141-1.894,30.141-1.894,7-1.9-6.808-7.4c-9.636-3.834-15.857-6.388-19.925-9.122.093-.18.193-.36.28-.553,0,0-5.641-5.335-.974-14.79a41.188,41.188,0,0,0,4.474-17.451l.78-31.868-2.334-42.3-1.807-44.4.32-.107c.307,8.162,1.9,27.594,10.243,23.826,10.5-4.741,1.554-17.071,1.554-17.071l-4.715-9.189,1.407-.48-5.275-17.044a38.443,38.443,0,0,1-.2-10.049,39.813,39.813,0,0,0-.12-5.868c6.908-1.207,13.523-2.487,14.71-2.194,1.4.34,9.236.407,12.316.42-1.007.787-1.814,1.567-1.814,1.567l12.543,8.442s4.254-2.327,5.141-4.795A5.534,5.534,0,0,0,526.565,377c.133,2.914.907,6.068,3.6,6.141a4.667,4.667,0,0,0,1.96-.387l20.512-4.061-1.76,11,1.227,2.181c-.62,9.276-1.334,19.125-1.96,27.787l-.287,1.894.147.033c-.974,13.337-1.754,23.439-1.754,23.439a12.289,12.289,0,0,1,5.115-5.141l.133,19.792s1.027,31.294,1.027,35.562.14,13.8.14,13.8,2.194,11.663,3.5,15.5,2.334,21.339,2.334,21.339,3.067,4.835,1.754,6.668,5.108,5.828,5.108,5.828-4.088,5.548-4.381,9.249c-.033.427.387.88,1.147,1.334-.24.193-.487.387-.76.573-1.894,1.267-4.668,2.147-8.842,1.787-11.383-1-19.4,9.529-12.4,11.663s28.007,2.561,28.007,2.561,6.362-3.968,11.336-2.181c-.073,4.174.133,8,.167,8.509l-.06.047c-2.974,2.667-8.669,7.255-14.23,9.129-8,2.7-9.776,13.657.58,15.077s25.526-1.707,25.526-1.707,7.875-5.828,13.857-7.108,11.089-4.128,10.069-7.542c-.667-2.181-2.381-7.9-3.541-11.736q-.1-.347-.2-.667c.18-.4.36-.813.527-1.24,0,0-3.061-15.931-.58-19.912s1.167-43.818,1.167-43.818-4.234-10.1-2.041-16.211-3.5-14.8-3.5-14.8.62-17.4,2.287-27.093q.113-.62.22-1.2a54.636,54.636,0,0,0,8.135-3.141s1.46-21.912,2.334-26.887c.087-.467.207-1.22.353-2.2l.667-3.514h0l.787-4h0l2.667-13.637,4.815-6.228,12.4-12.67S646.855,384.119,645.394,371.456ZM454.12,293.216l-.093.067a1.147,1.147,0,0,1-.033-.147A.6.6,0,0,0,454.12,293.216Zm122.544,15.531-.48,1.047,1.754-1.747-2.381,2.667.8-1.68ZM564.821,333.22c-.46,1.22-.954,2.541-1.467,3.914l.94-2.807Z" transform="translate(718.819 150.921)"/><path class="j" d="M595.809,444.484s-1.634,10.876,3.267,11.016,8.175-8.389,8.175-8.389l-2-6.822Z" transform="translate(649.561 79.553)"/><path class="k" d="M595.809,444.484s-1.634,10.876,3.267,11.016,8.175-8.389,8.175-8.389l-2-6.822Z" transform="translate(649.561 79.553)"/><path class="l" d="M419.677,781.246c-8.722.38-20.1-9.476-20.1-9.476l-.567-10.236s-.754.38-2.274-1.894c-1.02-1.527.447-7.855,1.52-11.836.52-1.947.947-3.334.947-3.334l19.138,5.121.914,2.421,7.429,19.752S428.392,780.866,419.677,781.246Z" transform="translate(715.913 -21.79)"/><path class="l" d="M534.385,745.266s-22.172,8.529-29.341,1.894-12.51-4.741-12.51-4.741-12.51.193-14.977-.76c-1.454-.553-.667-5.295.24-9.069.614-2.607,1.28-4.761,1.28-4.761s21.792-7.4,25.206-2.847a16.346,16.346,0,0,0,3.634,3.468c3.948,2.854,10.116,5.441,19.872,9.422C541.207,743.366,534.385,745.266,534.385,745.266Z" transform="translate(689.14 -14.804)"/><path class="m" d="M530.595,496.35l6.062,12.13s8.722,12.323-1.514,17.058S525.1,498.25,525.1,498.25Z" transform="translate(673.032 60.876)"/><path class="n" d="M495.25,338.61s6.635,3.034,10.616,15.731,9.289,34.309,9.289,34.309,3.6,24.446,3.027,30.514a39.342,39.342,0,0,0,.193,10.042l5.115,17.058-10.236,3.6L497.524,389.6Z" transform="translate(682.977 113.429)"/><path class="d" d="M495.25,338.61s6.635,3.034,10.616,15.731,9.289,34.309,9.289,34.309,3.6,24.446,3.027,30.514a39.342,39.342,0,0,0,.193,10.042l5.115,17.058-10.236,3.6L497.524,389.6Z" transform="translate(682.977 113.429)"/><path class="f" d="M419.265,749.6l.914,2.421-1.12,2.14c-4.361,1.894-15.164.38-15.164.38s-2-2.541-4.734-6.722c.52-1.947.947-3.334.947-3.334Z" transform="translate(714.991 -21.797)"/><path class="f" d="M509.1,729.342c-5.528,12.523-24.319,7.875-29.541,6.308-.86-.26-1.334-.433-1.334-.433s.033-1.02.047-2.627c.614-2.607,1.28-4.761,1.28-4.761s21.792-7.4,25.206-2.847a16.344,16.344,0,0,0,3.634,3.468,6.424,6.424,0,0,0,.707.894Z" transform="translate(688.648 -14.804)"/><path class="o" d="M479.628,625.906c-4.548,9.469.954,14.784.954,14.784-5.528,12.516-24.319,7.875-29.541,6.3-.86-.253-1.334-.427-1.334-.427s.38-13.083-.947-19.338-1.14-32.595-.38-35.816a76.255,76.255,0,0,0,1.134-9.482s-.567-7.389.38-10.989a5.675,5.675,0,0,0-1.414-5.588l-.1-.1s-4.168,14.217-5.688,16.671-2.081,14.784-2.274,17.058-7.962,21.232-7.962,21.232-3.027,8.716-3.594,11.176-2.847,9.482-2.847,9.482L416.879,658.5c-4.361,1.894-15.164.38-15.164.38s-2.081-2.667-4.928-7.015-4.168-19.7-4.168-19.7,10.423-.193,7.769-10.236,2.274-17.818,2.087-21.232,2.274-14.59,3.6-16.3,1.134-8.909.754-12.89-.187-18-.187-18,.38-6.255,2.274-9.1,1.14-11,1.14-11,3.594-1.894,1.134-20.278,4-42.264,4-42.264l.22-3.334.347-5.4s54.207-3.414,58.568.754a14.377,14.377,0,0,1,2.767,3.968,39.478,39.478,0,0,1,3.134,10.089L482.5,534.37l2.274,42.264-.76,31.841A42.329,42.329,0,0,1,479.628,625.906Z" transform="translate(717.17 72.714)"/><path class="f" d="M491.12,538.42l-5.688,123.191L478.6,672.84c-.86-.253-1.334-.427-1.334-.427s.38-13.083-.947-19.338-1.14-32.595-.38-35.816a76.249,76.249,0,0,0,1.134-9.482s-.567-7.389.38-10.989a5.675,5.675,0,0,0-1.414-5.588l.093-.667Z" transform="translate(689.608 46.859)"/><path class="f" d="M406.953,734.627s14.784-5.875,17.058-4-17.431,4.734-17.431,4.734Z" transform="translate(712.519 -17.055)"/><path class="f" d="M509.71,713.5c-.567.193-14.97,5.335-13.643,10.8S509.71,713.5,509.71,713.5Z" transform="translate(682.734 -11.472)"/><path class="m" d="M449.07,289.511s4.828,11.656,2.274,17.631,27.573,16.2,27.573,16.2-8.809-22.746-.28-35.542S449.07,289.511,449.07,289.511Z" transform="translate(698.363 132.114)"/><path class="p" d="M690.932,787.529c-5.828,1.28-13.5,7.108-13.5,7.108s-14.784,3.128-24.88,1.707-8.382-12.37-.567-15.07c5.421-1.867,10.976-6.475,13.877-9.116,1.28-1.18,2.041-2,2.041-2l28.294-5.688s.46,1.58,1.1,3.761c1.134,3.848,2.807,9.556,3.448,11.73C701.735,783.408,696.76,786.249,690.932,787.529Z" transform="translate(632.905 -28.453)"/><path class="p" d="M673.339,755.485s-11.943,1.28-16.918-1.56-12.083,1.707-12.083,1.707-20.472-.427-27.293-2.561.994-12.67,12.083-11.656c4.041.367,6.775-.52,8.622-1.787A9.082,9.082,0,0,0,641.5,734l24.006,1.42,3.334,8.509Z" transform="translate(643.249 -18.302)"/><path class="f" d="M680.831,747.81s-27.9-4.561-31.461-8.182A9.083,9.083,0,0,0,653.124,734l24.006,1.42,3.334,8.509Z" transform="translate(631.629 -18.302)"/><path class="q" d="M634.52,514.407l.287,41.644s.994,31.275.994,35.542.14,13.783.14,13.783,2.134,11.656,3.414,15.5,2.274,21.339,2.274,21.339,2.987,4.835,1.707,6.668,4.974,5.828,4.974,5.828-4,5.548-4.261,9.242,31.835,8.942,31.835,8.942l-12.5-128.212-9.956-32.121Z" transform="translate(636.577 55.475)"/><path class="f" d="M634.52,514.407l.287,41.644s.994,31.275.994,35.542.14,13.783.14,13.783,2.134,11.656,3.414,15.5,2.274,21.339,2.274,21.339,2.987,4.835,1.707,6.668,4.974,5.828,4.974,5.828-4,5.548-4.261,9.242,31.835,8.942,31.835,8.942l-12.5-128.212-9.956-32.121Z" transform="translate(636.577 55.475)"/><path class="f" d="M707.445,768.264c-9.289,22.146-31.381,5.055-31.381,5.055s0-.427-.053-1.16c1.28-1.18,2.04-2,2.04-2l28.294-5.688S706.8,766.084,707.445,768.264Z" transform="translate(622.754 -28.453)"/><path class="q" d="M696.847,680.09c-9.1,23.339-31.7,5.828-31.7,5.828s-.714-12.083.714-17.624-1.567-22.179-1.567-22.179-1.707-14.784-3.267-18.191-1.42-10.236-1.42-10.8.567-5.121-.714-8.249-2-10.8-2-10.8,0-10.8-1.28-17.2L651.2,558.867,643.24,513.8l2.487-.427,44.564-7.815s8.389,42.677,5.541,47.052a18.356,18.356,0,0,0-1.6,5.768c-1.627,9.682-2.234,27.067-2.234,27.067s5.542,8.669,3.414,14.784,2,16.2,2,16.2,1.28,39.8-1.14,43.784S696.847,680.09,696.847,680.09Z" transform="translate(633.672 57.807)"/><path class="r" d="M700.645,316.763s-40.37,28.427-31.274,14.21c4.9-7.655,4-17.4,2.08-24.766a58.44,58.44,0,0,0-4-10.863s34.3-14.59,29.754-1.514a24.5,24.5,0,0,0-1.334,9.5A25.339,25.339,0,0,0,700.645,316.763Z" transform="translate(625.606 130.162)"/><path class="r" d="M597.8,427.462s-17.058-4.928-19.9-.093.854,15.444,6,17.151,16.964-5.781,16.964-5.781Z" transform="translate(655.77 84.566)"/><path class="j" d="M625.293,416l-7.108,6.542s-12.37,1.134-15.924.28c0,0,3.274,21.892-1.42,24.593l28.714-5.828Z" transform="translate(647.798 87.645)"/><path class="f" d="M625.293,416l-7.108,6.542s-12.37,1.134-15.924.28c0,0,3.274,21.892-1.42,24.593l28.714-5.828Z" transform="translate(647.798 87.645)"/><path class="f" d="M479.319,264.007a21.339,21.339,0,0,1-21.339,21.339c-10.949-5.261-21.339-9.542-21.339-21.339a21.339,21.339,0,1,1,42.644,0Z" transform="translate(702.509 145.675)"/><path class="m" d="M479.366,263.595a21.3,21.3,0,1,1-4.828-13.49A21.3,21.3,0,0,1,479.366,263.595Z" transform="translate(702.462 145.514)"/><path class="f" d="M488.489,466.883a48.225,48.225,0,0,1-6.608,3.428s-10.8-1.567-12.363.28-15.337,2.561-15.337,2.561-21.039-.994-24.166-3.694a12.8,12.8,0,0,0-3.194-1.894l.347-5.4s54.207-3.414,58.568.754a14.373,14.373,0,0,1,2.754,3.968Z" transform="translate(705.776 72.704)"/><path class="n" d="M485.051,412.214c-.427,2.414-9.242,6.108-9.242,6.108s-10.8-1.56-12.363.287-15.337,2.561-15.337,2.561-21.039-1-24.166-3.7-10.1-4-10.1-4-3.554-25.3-2.127-30.841-2.134-20.759-2.987-26.16,2.414-20.325,6.395-22.739S424.8,323.2,428.2,320.791c2.874-2.034,6.048-4.668,6.975-5.461l.273-.227s.573-4.408,2.847-6.668,23.166,14.357,23.166,14.357.147,1.28,1.567-1.134c.32-.54,3.074,3.434,3.554,5.115,0,0,11.37,19.9,12.083,24.006s3.694,17.484,4.261,20.752c.147.84.387,3.788.667,7.735.053.773.1,1.594.16,2.447.42,6.548.874,14.91,1.147,21.232,0,.72.06,1.414.08,2.081a70.8,70.8,0,0,1,.067,7.188Z" transform="translate(711.848 123.553)"/><path class="f" d="M415,387.21s7.815,9.522,10.376,9.522S415,387.21,415,387.21Z" transform="translate(709.714 97.237)"/><path class="f" d="M434.071,417.91s-12.8,13.93-11.089,16.491S434.071,417.91,434.071,417.91Z" transform="translate(707.107 87.009)"/><path class="f" d="M425.62,448.685s14.67-16.064,15.337-21.605Z" transform="translate(706.176 83.954)"/><path class="f" d="M453.33,452.477s16.918-8.956,18.338-16.064S453.33,452.477,453.33,452.477Z" transform="translate(696.943 81.296)"/><path class="f" d="M484.347,330.654,482,336.335l3.908,1.847,3.841,10.736s10.589,21.179,10.163,32.195,1.92,27.574,1.92,27.574l6.108-1.134-2.881-32.4a46.739,46.739,0,0,0-3.721-14.544C496.457,349.432,487.375,328.8,486.8,328.8c-.78,0-.233.287-.233.287Z" transform="translate(687.392 116.698)"/><path class="s" d="M485.2,329.8l-2.347,5.688,3.914,1.847,3.834,10.736s10.589,21.179,10.163,32.195,1.92,27.574,1.92,27.574L508.8,406.7l-2.887-32.4a46.557,46.557,0,0,0-3.714-14.544c-4.881-11.183-13.963-31.808-14.53-31.808-.787,0-.24.287-.24.287Z" transform="translate(687.108 116.981)"/><path class="m" d="M583.114,446.112c-2.974-.227-10.109-3.834-12.943-5.335l-1.2-.667.147-11.009a19.356,19.356,0,0,1,2.174-1.1c3.788-1.654,11.556-3.9,15.451,3.334C592,441.038,586.881,446.366,583.114,446.112Z" transform="translate(658.416 84.206)"/><path class="f" d="M474.481,250.069a3.154,3.154,0,0,1-.994.407c-2.474.54-5.288-1.587-7.409-.22-1.294.84-1.594,2.581-1.767,4.114q-.453,4-.907,7.949a9.808,9.808,0,0,1-.587,2.741c-1.047,2.394-3.921,3.521-6.542,3.481a3.9,3.9,0,0,1-2.821-.934c-.46-.467-.707-1.12-1.214-1.547-3.334-2.794-4.348,4.054-3.468,6,1.414,3.181,6.435,6.248,4.328,10.289a3.855,3.855,0,0,1-1.547,1.554,21.339,21.339,0,1,1,22.926-33.835Z" transform="translate(702.52 145.55)"/><path class="t" d="M448.246,261.216c.5.42.754,1.074,1.214,1.54a3.907,3.907,0,0,0,2.821.934c2.621.04,5.495-1.08,6.535-3.488a9.5,9.5,0,0,0,.593-2.734l.907-7.949c.173-1.534.467-3.274,1.767-4.114,2.121-1.334,4.935.76,7.409.22a3.621,3.621,0,0,0,2.667-4.174c-.287-1.274-1.26-2.281-1.76-3.494a22.828,22.828,0,0,1-.727-2.847c-1.38-5.175-7.455-8.082-12.737-7.215-2.934.487-5.661,1.887-8.6,2.314-2.107.307-4.261.107-6.388.333a16.124,16.124,0,0,0-5.668,1.674,3.294,3.294,0,0,0-1.2.907,5.007,5.007,0,0,0-.6,1.707c-.714,2.667-3.007,4.634-4.668,6.882a16.4,16.4,0,0,0-3.161,8.876,7.118,7.118,0,0,0,.227,2.434c.14.467.36.92.467,1.4.327,1.46-.42,2.921-.787,4.374a8.749,8.749,0,0,0,.467,5.561c2.561,5.888,11,7.855,12.75,14.037a14,14,0,0,0,4.961,1.334,4.786,4.786,0,0,0,4.374-2.234c2.1-4-2.914-7.108-4.328-10.283C443.891,265.257,444.885,258.415,448.246,261.216Z" transform="translate(705.949 150.367)"/><path class="f" d="M697.251,293.83a24.5,24.5,0,0,0-1.334,9.5c-1.027.874-2.147-1.74-3.334-1.067-3.254,1.88-7.015,6.355-11.043,6.355a22.118,22.118,0,0,1-10.049-2.407,58.445,58.445,0,0,0-4-10.863S701.8,280.754,697.251,293.83Z" transform="translate(625.592 130.162)"/><path class="r" d="M699.618,272.679A22.179,22.179,0,1,1,677.439,250.5,22.179,22.179,0,0,1,699.618,272.679Z" transform="translate(629.667 142.785)"/><path class="u" d="M692.99,332.08s-4.174,4.548-4.741,4.921-12.67,51.346-12.883,51.94-14.41,46.618-14.41,46.618L638.21,446.742l1.9-56.294,16.671-46.425s5.5-6.255,7.2-8.529,22.932-15.924,22.932-15.924l3.628,7.475Z" transform="translate(635.347 119.773)"/><path class="f" d="M702.573,328.755,676.42,347.48,676,337.2c1.707-2.274,22.932-15.917,22.932-15.917Z" transform="translate(622.757 119.203)"/><path class="u" d="M703.43,327.045,677.277,345.77l-.407-10.276c1.707-2.281,22.932-15.924,22.932-15.924Z" transform="translate(622.467 119.773)"/><path class="j" d="M659.465,336.59l.874,4.574-5.848,5.941,4.668-10.449s-10,6.968-13,8.816-6,8.1-6.115,9.809-4.835,27.434-4.835,27.434-3.554,9.522-2.554,12.223-5.4,87.849-5.4,87.849a12.67,12.67,0,0,1,8.549-6.555l-2.281-50.319s2.774-33.475,2.914-33.9,6.468-19.832,6.468-19.832Z" transform="translate(638.999 114.102)"/><path class="f" d="M662.494,344.3l-.453,9.336s-6.328,19.972-8.456,23.239-8.6,22.746-8.6,22.746l-3.648,33.835-6.255,2.847L632,430.628l5.121-32.675s9.662-27.574,11.089-30.421l7.128-15.017Z" transform="translate(637.416 111.534)"/><path class="v" d="M661.624,343.45l-.447,9.336s-6.328,19.972-8.462,23.239-8.6,22.746-8.6,22.746L640.492,432.6l-6.255,2.841-3.128-5.681,5.121-32.675s9.662-27.58,11.083-30.421l7.182-15Z" transform="translate(637.713 111.817)"/><path class="r" d="M566.31,448.761l12.223,8.462s8.622-4.834,3.6-7.962a22.264,22.264,0,0,0-11.089-3.6C569.431,445.66,566.31,448.761,566.31,448.761Z" transform="translate(659.302 77.764)"/><path class="r" d="M579.557,426.288a1.88,1.88,0,0,0-.887,1.607c0,2.594.293,9.462,2.467,6.362,2.667-3.794,2.181-7.2,6.255-4.741a24,24,0,0,1,6.535,6l-1.134-8.149S584.418,423.234,579.557,426.288Z" transform="translate(655.184 84.592)"/><path class="f" d="M696.92,552.572a18.355,18.355,0,0,0-1.6,5.768c-24.926,7.475-43.164-8.329-43.164-8.329a217.556,217.556,0,0,1-5.4-22.739c-.447-2.627-.347-7.722.067-13.937l44.565-7.815S699.767,548.164,696.92,552.572Z" transform="translate(632.598 57.82)"/><path class="j" d="M722.487,363.3c-1.134,3.7-.707,11.229-.707,11.229l-10.236,48.332s-4.975,37.243-5.828,42.217-2.274,26.867-2.274,26.867c-29,14.217-51.346-5.115-51.346-5.115a217.938,217.938,0,0,1-5.4-22.746c-1.427-8.442,2.774-42.264,4.761-57.288.594-4.448.994-7.248.994-7.248l7.462-27.72s9.169-23.386,12.583-30.208,17.124-22.146,17.124-22.146c1.7-1.08,4.421,2.734,6.442,6.208,1.527,2.627,2.667,5.068,2.667,5.068s17.058,7.389,19.612,11.336,2.134,12.083,2.421,12.51S723.628,359.607,722.487,363.3Z" transform="translate(632.617 119.866)"/><path class="f" d="M685.084,346.387s1.28,7.535-2,9.809c-3.167,2.2-26.747,48.565-28.214,51.46.593-4.454.994-7.255.994-7.255l7.462-27.714s9.176-23.386,12.583-30.214,17.131-22.146,17.131-22.146c1.7-1.08,4.414,2.734,6.435,6.208C696.427,332.863,690.072,344.826,685.084,346.387Z" transform="translate(629.797 119.583)"/><path class="j" d="M684.227,345.537s1.274,7.535-2,9.809S655.487,403.9,654,406.8c.594-4.448.994-7.248.994-7.248l7.462-27.72s9.169-23.386,12.583-30.208,17.124-22.145,17.124-22.145c1.7-1.08,4.421,2.734,6.442,6.208C695.57,332.007,689.209,343.976,684.227,345.537Z" transform="translate(630.087 119.866)"/><path class="w" d="M655.823,418.587,647.8,460.324v.007l-.767,3.994v.007l-1.727,8.982-7.369-1.56-3.434-.727-47.525-10.069-3.494-.74-7.975-1.687,1.56-10.363.647-4.308,5.755-38.21Z" transform="translate(692.319 114.906)"/><path class="r" d="M675.87,511.92s-18.9,6.822-14.784,14.924,30.561-6.255,30.561-6.255Z" transform="translate(627.922 55.688)"/><path class="f" d="M703.8,599.1c0,.567.714,7.822,3.554,10.376S703.8,599.1,703.8,599.1Z" transform="translate(613.495 26.643)"/><path class="f" d="M675.24,637.68s3.408,9.382,16.911,13.223S675.24,637.68,675.24,637.68Z" transform="translate(623.01 13.789)"/><path class="f" d="M701.773,272.708a22.172,22.172,0,0,1-11.116,19.225,11.8,11.8,0,0,1-3.334-2.781c-.967-1.174-1.72-2.774-1.14-4.174.467-1.127,1.7-1.84,2-3.007a4.428,4.428,0,0,0-.107-2.147c-.247-1.1-.48-2.2-.72-3.294-.207-.934-.573-2.034-1.5-2.261s-1.7.547-2.427,1.12c-1.78,1.407-5.195,2.361-7.335,1.207s-1.54-5.015-1.887-7.1a1.24,1.24,0,0,0-.467-.94,1.947,1.947,0,0,0-.967-.067,2.784,2.784,0,0,1-2.414-2.141,18.417,18.417,0,0,1-.387-3.434,3.831,3.831,0,0,0-1.534-2.967,4.741,4.741,0,0,0-2.527-.413l-4.181.047a22.179,22.179,0,0,1,40.01,13.15Z" transform="translate(627.511 142.756)"/><path class="v" d="M682.087,272.4c.727-.573,1.527-1.334,2.427-1.114s1.287,1.334,1.494,2.254l.72,3.287a4.468,4.468,0,0,1,.113,2.154c-.34,1.174-1.567,1.88-2.041,3.007-.58,1.4.18,3,1.14,4.168a12,12,0,0,0,6.862,4.1,5.041,5.041,0,0,0,2.14.047c1.587-.367,2.667-1.827,3.521-3.194,4.408-6.868,8.2-14.4,8.976-22.519a14.447,14.447,0,0,0-.227-4.968,16.676,16.676,0,0,0-1.52-3.634,29.342,29.342,0,0,0-4.288-6.488,24.354,24.354,0,0,0-11.523-6.462,39.024,39.024,0,0,0-14.877-1.167c-1.334.153-2.614.373-3.928.46a39.53,39.53,0,0,1-4.948-.08l-9.816-.587c-.56,1.14,0,2.494.667,3.561s1.494,2.174,1.44,3.441-.953,2.267-1.647,3.334-1.22,2.447-.527,3.488,2.107,1.107,3.334,1.094l4.948-.053a4.728,4.728,0,0,1,2.514.433,3.842,3.842,0,0,1,1.534,2.967,19.626,19.626,0,0,0,.387,3.434,2.774,2.774,0,0,0,2.414,2.141,1.8,1.8,0,0,1,.967.073,1.227,1.227,0,0,1,.467.934c.347,2.087-.293,5.941,1.887,7.1S680.307,273.808,682.087,272.4Z" transform="translate(629.447 145.743)"/><path class="f" d="M716.444,353.439a10.869,10.869,0,0,0-11.436,7.3c-2.667,7.6-7.115,21.3-6,26.713,1.567,7.675,3.414,20.472,3.414,20.472s8.1,4.668,4,9.376-5.261,11.376-5.261,11.376-5.261,2.274-6.395,7.108-8.815,11.51-8.815,11.51l-11.51,11.516s19.045,19.338,22.886,20.325l11.8-13.79,13.93-18.478,12.083-12.67s2.841-6.668,1.42-19.338-6.968-24.733-6.968-24.733l.427-4.268S731.321,355.287,716.444,353.439Z" transform="translate(623.277 108.509)"/><path class="j" d="M718.147,353.44a10.869,10.869,0,0,0-11.423,7.3c-2.667,7.6-7.115,21.3-6,26.713,1.56,7.675,3.408,20.472,3.408,20.472s8.1,4.668,4,9.376-5.255,11.376-5.255,11.376-5.261,2.274-6.4,7.108-8.809,11.51-8.809,11.51L676.15,458.813s19.045,19.338,22.886,20.325l11.8-13.79,13.9-18.478,12.083-12.67s2.847-6.668,1.42-19.338-6.962-24.733-6.962-24.733l.427-4.268S733.024,355.287,718.147,353.44Z" transform="translate(622.707 108.508)"/><path class="f" d="M721.28,418.34s12.083,14.777,17.2,11.51S721.28,418.34,721.28,418.34Z" transform="translate(607.671 86.866)"/><path class="f" d="M728.1,401.28c1.28.427,11.8,15.07,17.2,13.337S728.1,401.28,728.1,401.28Z" transform="translate(605.399 92.55)"/><path class="f" d="M732.58,439s.714,8.389,9.382,7.248S732.58,439,732.58,439Z" transform="translate(603.907 79.983)"/><path class="f" d="M618.678,301.83l-4.688,10.449,5.855-5.942Z" transform="translate(679.499 149.496)"/><path class="u" d="M618.678,300.98l-4.688,10.449,5.855-5.941Z" transform="translate(679.499 149.779)"/><path class="x" d="M587.759,480.048l-3.494-.74-6.415-12.05.647-4.308Z" transform="translate(691.54 95.816)"/><path class="x" d="M677.277,487.65l-.767,3.994v.007l-9.1,7.422-3.434-.727Z" transform="translate(662.844 87.587)"/><path class="f" d="M488.838,417.011c-1.76.293-3.468.56-5.028.76-8.669,1.14-29.287-9.1-29.287-9.1s-25.16-21.039-32.408-40.937,8.669-22.886,8.669-22.886c6-3.414,19.051,6.108,20.9,7.675s3.414,5.541,3.268,8.1,4.268,5.828,4.268,5.828,7.535,13.077,9.382,14.5,2.274,2.7,2.841,5.121,5.541,4.408,7.675,4.261,4.668.714,4.668,1.847c0,.914,2.087,1.367,3.8,1.514C488.091,400.987,488.591,410.536,488.838,417.011Z" transform="translate(707.974 111.594)"/><path class="f" d="M489.328,413.795c-1.334.213-2.614.407-3.814.567-8.669,1.14-29.281-9.1-29.281-9.1s-25.16-21.039-32.408-40.937,8.669-22.886,8.669-22.886c6-3.414,19.045,6.108,20.892,7.675s3.414,5.541,3.274,8.1,4.261,5.828,4.261,5.828,7.535,13.077,9.382,14.5,2.274,2.7,2.847,5.121,5.541,4.4,7.675,4.261,4.668.714,4.668,1.847c0,.667,1.187,1.114,2.507,1.334.053.774.1,1.594.16,2.447C488.6,399.111,489.054,407.473,489.328,413.795Z" transform="translate(707.404 112.73)"/><path class="f" d="M571.291,428.84l-.54,12.776h-.58l-1.2-.667.147-11.009A19.336,19.336,0,0,1,571.291,428.84Z" transform="translate(658.416 83.368)"/><path class="n" d="M430.784,343.145s-15.917,2.987-8.669,22.886,32.408,40.944,32.408,40.944,20.612,10.229,29.287,9.1,21.885-4.121,23.593-3.694,13.223.427,13.223.427l.567-13.337-13.337-.714-6.822-1.42s-2.421-2-3.841-1.707-4.4-1.707-4.4-1.707-2.281-1.847-4-1.847-4.975-.427-4.975-1.56-2.561-2-4.668-1.847-7.142-1.847-7.729-4.294-.994-3.694-2.841-5.115-9.382-14.5-9.382-14.5-4.408-3.267-4.268-5.821-1.42-6.542-3.267-8.109S436.745,339.737,430.784,343.145Z" transform="translate(707.974 112.162)"/><path class="f" d="M495.057,412.15s-6.115,6.115-4.554,7.248Z" transform="translate(684.644 88.928)"/><path class="f" d="M504.167,419.4s-7.962,6.115-5.828,6.542S504.167,419.4,504.167,419.4Z" transform="translate(682.069 86.513)"/><path class="f" d="M487,433c1.14.573,18.051,10.669,24.453,10.523Z" transform="translate(685.726 81.982)"/><path class="f" d="M475.587,324.518s-2.987,9.809-4.128,9.809c-.894,0-15.9-12.15-22.159-17.258l.273-.227s.567-4.408,2.841-6.668S475.587,324.518,475.587,324.518Z" transform="translate(698.286 122.974)"/><path class="n" d="M474.727,322.808s-2.981,9.809-4.121,9.809c-.9,0-15.9-12.15-22.166-17.258l.273-.227s.573-4.408,2.847-6.668S474.727,322.808,474.727,322.808Z" transform="translate(698.573 123.543)"/><g class="y" transform="translate(1133.042 381.742)"><path d="M427.49,282.54h0c2,4.568,7.509,6.782,10.7,10.423C436.292,288.488,430.737,286.294,427.49,282.54Z" transform="translate(-427.49 -249.632)"/><path d="M453.682,296.394a4.793,4.793,0,0,1-4.374,2.234,12.765,12.765,0,0,1-4.388-1.12,8.528,8.528,0,0,1,1.134,2.414,13.936,13.936,0,0,0,4.961,1.334,4.745,4.745,0,0,0,4.374-2.234c1.274-2.434-.053-4.514-1.607-6.482A4.234,4.234,0,0,1,453.682,296.394Z" transform="translate(-433.297 -252.963)"/><path d="M480.5,243.2c-.287-1.28-1.26-2.287-1.76-3.494a21.822,21.822,0,0,1-.727-2.854,8.842,8.842,0,0,0-2.047-3.661,8.492,8.492,0,0,1,.34,1.007,22.927,22.927,0,0,0,.747,2.867c.5,1.207,1.474,2.214,1.76,3.494a3.621,3.621,0,0,1-2.667,4.174c-2.467.54-5.281-1.594-7.4-.22-1.3.834-1.6,2.574-1.774,4.108q-.447,4-.907,7.955a9.532,9.532,0,0,1-.587,2.734c-1.047,2.4-3.921,3.528-6.542,3.488a3.928,3.928,0,0,1-2.814-.934,18.582,18.582,0,0,0-1.22-1.547c-3.334-2.8-4.348,4.048-3.468,6a12.085,12.085,0,0,0,1.627,2.447c-.733-2.2.293-8.535,3.548-5.821a17.218,17.218,0,0,1,1.214,1.547,3.955,3.955,0,0,0,2.821.934c2.621.04,5.495-1.087,6.542-3.488a9.534,9.534,0,0,0,.587-2.741q.453-4,.907-7.949c.173-1.534.473-3.274,1.767-4.108,2.127-1.374,4.941.76,7.408.213A3.614,3.614,0,0,0,480.5,243.2Z" transform="translate(-435.365 -233.19)"/></g><path class="f" d="M696.286,288.555a5.155,5.155,0,0,1-2.141-.053,12,12,0,0,1-6.855-4.094c-.967-1.174-1.727-2.774-1.14-4.174.467-1.127,1.694-1.834,2-3.007a4.468,4.468,0,0,0-.113-2.154l-.72-3.287c-.207-.934-.567-2.034-1.494-2.254s-1.7.54-2.427,1.114c-1.78,1.407-5.2,2.367-7.335,1.207s-1.54-5.015-1.887-7.1a1.247,1.247,0,0,0-.467-.934,1.9,1.9,0,0,0-.974-.073,2.791,2.791,0,0,1-2.414-2.141,18.938,18.938,0,0,1-.38-3.434,3.848,3.848,0,0,0-1.54-2.967,4.8,4.8,0,0,0-2.514-.433l-4.948.053c-1.22,0-2.667-.08-3.334-1.094s-.173-2.454.527-3.488,1.587-2.061,1.647-3.334-.767-2.374-1.44-3.441a6.172,6.172,0,0,1-.84-1.907l-1.42-.087c-.554,1.134,0,2.487.667,3.561s1.5,2.174,1.44,3.434-.947,2.274-1.647,3.334-1.214,2.447-.52,3.488,2.1,1.114,3.334,1.1l4.948-.06a4.788,4.788,0,0,1,2.514.44,3.828,3.828,0,0,1,1.54,2.967,18.422,18.422,0,0,0,.387,3.434,2.76,2.76,0,0,0,2.414,2.134,1.953,1.953,0,0,1,.967.073,1.253,1.253,0,0,1,.467.94c.347,2.081-.293,5.941,1.887,7.1s5.581.2,7.335-1.207c.727-.573,1.534-1.334,2.434-1.12s1.287,1.334,1.487,2.254l.727,3.294a4.461,4.461,0,0,1,.107,2.154c-.333,1.167-1.567,1.88-2.034,3-.58,1.4.173,3.007,1.14,4.174a12,12,0,0,0,6.9,4.094,5.155,5.155,0,0,0,2.141.053,5.028,5.028,0,0,0,2.774-2.107A3.7,3.7,0,0,1,696.286,288.555Z" transform="translate(629.525 145.793)"/><ellipse class="a" cx="16.117" cy="2.474" rx="16.117" ry="2.474" transform="translate(1003.77 723.9)"/><ellipse class="a" cx="16.117" cy="2.474" rx="16.117" ry="2.474" transform="translate(1566.524 659.578)"/><ellipse class="a" cx="46.678" cy="7.162" rx="46.678" ry="7.162" transform="translate(1371.649 754.581)"/><ellipse class="a" cx="36.409" cy="5.588" rx="36.409" ry="5.588" transform="translate(1514.611 725.814)"/><ellipse class="a" cx="61.742" cy="9.476" rx="61.742" ry="9.476" transform="translate(1483.283 777.607)"/><ellipse class="a" cx="46.678" cy="7.162" rx="46.678" ry="7.162" transform="translate(904.225 788.256)"/><path class="z" d="M256.385,631.85s1.827,2.387-.84,6-4.868,6.668-4,8.9c0,0,4-6.668,7.335-6.788S259.993,635.878,256.385,631.85Z" transform="translate(764.236 15.731)"/><path class="f" d="M256.445,631.85a2.666,2.666,0,0,1,.373.747c3.2,3.761,4.9,7.262,1.827,7.335-2.861.08-6.295,5.2-7.115,6.495a2.479,2.479,0,0,0,.093.293s4-6.668,7.335-6.788S260.052,635.878,256.445,631.85Z" transform="translate(764.177 15.731)"/><path class="aa" d="M263.787,636.14c0,.84-.1,1.52-.213,1.52s-.213-.667-.213-1.52.12-.44.233-.44S263.787,635.3,263.787,636.14Z" transform="translate(760.235 14.482)"/><path class="aa" d="M265.022,637.63c-.734.4-1.38.667-1.434.54s.493-.507,1.234-.914.447-.107.5,0S265.762,637.223,265.022,637.63Z" transform="translate(760.16 13.999)"/><path class="z" d="M242.392,631.85s-1.827,2.387.84,6,4.875,6.668,4,8.9c0,0-4-6.668-7.3-6.788S238.765,635.878,242.392,631.85Z" transform="translate(768.586 15.731)"/><path class="f" d="M242.385,631.85a2.939,2.939,0,0,0-.373.747c-3.2,3.761-4.9,7.262-1.827,7.335,2.861.08,6.295,5.2,7.122,6.495a2.547,2.547,0,0,1-.1.293s-4-6.668-7.3-6.788S238.758,635.878,242.385,631.85Z" transform="translate(768.594 15.731)"/><path class="aa" d="M239.35,636.14c0,.84.093,1.52.207,1.52s.213-.667.213-1.52-.12-.44-.233-.44S239.35,635.3,239.35,636.14Z" transform="translate(768.235 14.482)"/><path class="aa" d="M237.376,637.63c.74.4,1.38.667,1.44.54s-.5-.507-1.24-.914-.447-.107-.5,0S236.636,637.223,237.376,637.63Z" transform="translate(769.042 13.999)"/><ellipse class="a" cx="19.091" cy="2.927" rx="19.091" ry="2.927" transform="translate(996.708 674.881)"/><path class="ab" d="M256.586,648.794l-.093.747-.127,1.054-.053.44-.127,1.054-.06.44L256,653.581l-1.46,12c-.127,1.067-1.874,1.9-4,1.9h-7.562c-2.107,0-3.854-.834-4-1.9l-1.46-12-.127-1.054-.053-.44-.133-1.054-.053-.44-.127-1.054-.093-.747c-.073-.607.874-1.114,2.067-1.114h15.531C255.713,647.68,256.66,648.187,256.586,648.794Z" transform="translate(769.043 10.457)"/><path class="ac" d="M202.432,614.76l-.127,1.054H183.087l-.127-1.054Z" transform="translate(823.104 45.238)"/><path class="ac" d="M202.341,617l-.127,1.054H183.363L183.23,617Z" transform="translate(823.014 44.491)"/><path class="ac" d="M202.255,619.24l-.133,1.054H183.637l-.127-1.054Z" transform="translate(822.921 43.745)"/><path class="z" d="M1082.561,618s-2.281,10.616,7.862,11.87l.627-1.18S1083.187,621.294,1082.561,618Z" transform="translate(487.378 20.346)"/><path class="z" d="M1095.839,625.927l-2.361.5-.233.053s-6.295-5.108-6.215-16.511a28.139,28.139,0,0,0,3.008,4.755C1092.531,618.025,1095.365,622.427,1095.839,625.927Z" transform="translate(485.816 23.021)"/><path class="z" d="M1098.63,625.058a1.481,1.481,0,0,1-1.267.167c-6.055-1.414-4-21.145-4-21.145.333.153.667,2.667,2.094,5.908C1097.89,615.676,1100.577,623.632,1098.63,625.058Z" transform="translate(483.817 24.983)"/><path class="z" d="M1116.383,618s.393,10.616-9.749,11.87l-.634-1.2S1115.756,621.294,1116.383,618Z" transform="translate(479.495 20.346)"/><path class="z" d="M1111.869,610a19.634,19.634,0,0,1-8.1,16.511l-.24-.053-2.354-.5c.467-3.5,3.334-7.9,5.795-11.2A25.654,25.654,0,0,1,1111.869,610Z" transform="translate(481.101 23.011)"/><path class="z" d="M1102.78,624.035a3.68,3.68,0,0,1-1.334,1.034h0a2.6,2.6,0,0,1-.5.167c-1.487.347-2-.727-1.92-2.554.14-3.247,2.18-8.882,4-13.1a16.377,16.377,0,0,1,3.8-5.488S1106.735,619.447,1102.78,624.035Z" transform="translate(481.821 24.98)"/><path class="z" d="M1100.469,593.7s-6.762,24.006-.94,27.594S1101.963,595.82,1100.469,593.7Z" transform="translate(482.439 28.442)"/><path class="f" d="M1082.561,618s-2.281,10.616,7.862,11.87l.627-1.18S1083.187,621.294,1082.561,618Z" transform="translate(487.378 20.346)"/><path class="f" d="M1095.839,625.927l-2.361.5-.233.053s-6.295-5.108-6.215-16.511a28.139,28.139,0,0,0,3.008,4.755C1092.531,618.025,1095.365,622.427,1095.839,625.927Z" transform="translate(485.816 23.021)"/><path class="f" d="M1098.63,625.058a1.481,1.481,0,0,1-1.267.167c-6.055-1.414-4-21.145-4-21.145.333.153.667,2.667,2.094,5.908C1097.89,615.676,1100.577,623.632,1098.63,625.058Z" transform="translate(483.817 24.983)"/><path class="f" d="M1116.383,618s.393,10.616-9.749,11.87l-.634-1.2S1115.756,621.294,1116.383,618Z" transform="translate(479.495 20.346)"/><path class="f" d="M1111.869,610a19.634,19.634,0,0,1-8.1,16.511l-.24-.053-2.354-.5c.467-3.5,3.334-7.9,5.795-11.2A25.654,25.654,0,0,1,1111.869,610Z" transform="translate(481.101 23.011)"/><path class="f" d="M1102.78,624.035a3.68,3.68,0,0,1-1.334,1.034h0a2.6,2.6,0,0,1-.5.167c-1.487.347-2-.727-1.92-2.554.14-3.247,2.18-8.882,4-13.1a16.377,16.377,0,0,1,3.8-5.488S1106.735,619.447,1102.78,624.035Z" transform="translate(481.821 24.98)"/><path class="f" d="M1100.469,593.7s-6.762,24.006-.94,27.594S1101.963,595.82,1100.469,593.7Z" transform="translate(482.439 28.442)"/><path class="z" d="M1082.641,618s-1.334,10.616,8.8,11.87l.627-1.18S1083.268,621.294,1082.641,618Z" transform="translate(487.297 20.346)"/><path class="z" d="M1096.769,625.937l-2.361.5-.234.053S1086.94,621.383,1087,610c0,0,1.854,2,3.948,4.754C1093.461,618.035,1096.3,622.436,1096.769,625.937Z" transform="translate(485.826 23.011)"/><path class="f" d="M1098.751,628.3l-2.361.5c-2.234-1.961-3.121-7.082-3.441-11.7C1095.444,620.4,1098.278,624.8,1098.751,628.3Z" transform="translate(483.843 20.646)"/><path class="z" d="M1099.7,625.058a1.493,1.493,0,0,1-1.274.167c-6.055-1.414-4.948-21.145-4.948-21.145.333.153,1.64,2.667,3.034,5.908C1098.962,615.676,1101.642,623.632,1099.7,625.058Z" transform="translate(483.693 24.983)"/><path class="z" d="M1116.859,618s1.334,10.616-8.8,11.87l-.627-1.18S1116.232,621.294,1116.859,618Z" transform="translate(479.019 20.346)"/><path class="z" d="M1112.339,610c.08,11.4-7.155,16.511-7.155,16.511l-.234-.053-2.361-.5c.467-3.5,3.334-7.9,5.8-11.2C1110.485,612,1112.339,610,1112.339,610Z" transform="translate(480.631 23.011)"/><path class="f" d="M1108.391,617.1c-.307,4.308-1.094,9.049-3.007,11.263a3.375,3.375,0,0,1-.434.44l-2.36-.5C1103.057,624.8,1105.9,620.4,1108.391,617.1Z" transform="translate(480.631 20.646)"/><path class="z" d="M1104.191,624.035a3.605,3.605,0,0,1-1.334,1.034h0a2.664,2.664,0,0,1-.493.167c-1.494.347-2-.727-1.927-2.554.147-3.247,2.187-8.882,4-13.1,1.334-3.034,2.541-5.335,2.861-5.488C1107.3,604.083,1108.145,619.447,1104.191,624.035Z" transform="translate(481.351 24.98)"/><path class="f" d="M1101.078,628.01a1.6,1.6,0,0,1-.96-.307c-2.847-1.774-2.907-8.429-2.227-14.764C1100.338,618.628,1103.019,626.583,1101.078,628.01Z" transform="translate(482.316 22.032)"/><path class="f" d="M1104.194,626.777c-.327.713-.767,1.087-1.334,1.034h0a1.794,1.794,0,0,1-.807-.307,4.308,4.308,0,0,1-1.614-2.081c.147-3.247,2.187-8.882,4-13.1C1105.094,618.168,1105.314,624.37,1104.194,626.777Z" transform="translate(481.348 22.238)"/><path class="w" d="M1100.829,593.7s-5.815,24.006,0,27.594S1102.323,595.82,1100.829,593.7Z" transform="translate(482.079 28.442)"/><path class="ad" d="M1052.653,597.61H1028.44v4.008h3.694l.093.473,1.48,7.782h14.077l1.48-7.782.087-.473h3.3Z" transform="translate(541.418 50.952)"/><path class="f" d="M1052.653,597.61H1028.44v4.008h3.694l.093.473,1.48,7.782h14.077l1.48-7.782.087-.473h3.3Z" transform="translate(541.418 50.952)"/><path class="ad" d="M1052.771,601.14l-.407,2.127-1.48,7.782h-14.077l-1.48-7.782-.407-2.127Z" transform="translate(539.259 49.776)"/><path class="f" d="M1052.771,601.14l-.407,2.127h-17.038l-.407-2.127Z" transform="translate(539.259 49.776)"/><rect class="ad" width="24.213" height="4.008" transform="translate(1570.798 648.562)"/><path class="z" d="M172.711,733.681a11.631,11.631,0,0,0-1.52,2.867c-.093.247-.187.534-.28.807a2.91,2.91,0,0,0-.527-.187,7.337,7.337,0,0,0-2.381-.2c0-.313.04-.667.047-.98.1-3.514-.313-8.409-3.668-6.335-3.214,2-.92,5.335,1.154,7.469.18.187.36.36.533.527-1.894,1.334-2.254,4.488-2.567,7.762s-3.094,6.855-4.941,8.889c-.187.207-.353.393-.52.567a6.768,6.768,0,0,0-5.368-1.38c-.073-.287-.16-.587-.247-.9-1.494-5.395-4.594-14.737-8.549-16.784l.52-.667c1.68-2.194,3.574-5.461.78-6.295s-3.047,2.827-2.894,5.575q.04.52.08.98a4.088,4.088,0,0,0-2.921,1.427l-.433-.513c-2.267-2.667-6.422-6.915-7.682-3.708-1.174,2.987,2.487,6.868,5.061,9.116l.16.14c-1.727,7.009,5.815,12.723,9.876,15.224l.527.32c-5.6,6.6-9.062,18.978-9.062,18.978l15.684,2.8s10.4-8.976,9.069-17.4h.107c10.4-2.081,12.757-13.163,11.136-19.745l.187-.073a11.77,11.77,0,0,0,4.815-3.641C181.793,734.281,175.712,729.72,172.711,733.681Z" transform="translate(804.299 -16.542)"/><path class="f" d="M172.711,733.681a11.631,11.631,0,0,0-1.52,2.867c-.093.247-.187.534-.28.807a2.91,2.91,0,0,0-.527-.187,7.337,7.337,0,0,0-2.381-.2c0-.313.04-.667.047-.98.1-3.514-.313-8.409-3.668-6.335-3.214,2-.92,5.335,1.154,7.469.18.187.36.36.533.527-1.894,1.334-2.254,4.488-2.567,7.762s-3.094,6.855-4.941,8.889c-.187.207-.353.393-.52.567a6.768,6.768,0,0,0-5.368-1.38c-.073-.287-.16-.587-.247-.9-1.494-5.395-4.594-14.737-8.549-16.784l.52-.667c1.68-2.194,3.574-5.461.78-6.295s-3.047,2.827-2.894,5.575q.04.52.08.98a4.088,4.088,0,0,0-2.921,1.427l-.433-.513c-2.267-2.667-6.422-6.915-7.682-3.708-1.174,2.987,2.487,6.868,5.061,9.116l.16.14c-1.727,7.009,5.815,12.723,9.876,15.224l.527.32c-5.6,6.6-9.062,18.978-9.062,18.978l15.684,2.8s10.4-8.976,9.069-17.4h.107c10.4-2.081,12.757-13.163,11.136-19.745l.187-.073a11.77,11.77,0,0,0,4.815-3.641C181.793,734.281,175.712,729.72,172.711,733.681Z" transform="translate(804.299 -16.542)"/><path class="w" d="M141.97,739.61l-1.834,5.335s-1.02-.72-2.307-1.854c-2.574-2.247-6.235-6.128-5.061-9.116,1.26-3.208,5.415,1.027,7.682,3.708C141.363,738.749,141.97,739.61,141.97,739.61Z" transform="translate(803.82 -17.91)"/><path class="w" d="M151.408,735.146a25.42,25.42,0,0,1-1.787,2.107,28.137,28.137,0,0,1-.327-2.827c-.153-2.747.14-6.4,2.894-5.575S153.088,732.952,151.408,735.146Z" transform="translate(798.249 -16.547)"/><path class="w" d="M185.37,736.206c-.053,1.767-.227,3.181-.227,3.181a23.281,23.281,0,0,1-2.287-2.047c-2.074-2.154-4.368-5.475-1.154-7.469C185.023,727.791,185.436,732.692,185.37,736.206Z" transform="translate(787.973 -16.761)"/><path class="w" d="M199.909,740.02a11.769,11.769,0,0,1-4.815,3.641,14.411,14.411,0,0,1-1.614.587l-2.161-3.034a21.461,21.461,0,0,1,.894-2.947,11.63,11.63,0,0,1,1.52-2.867C196.721,731.438,202.816,736,199.909,740.02Z" transform="translate(784.237 -18.26)"/><path class="f" d="M143.091,740.11c.914,1.067,1.52,1.894,1.52,1.894l-1.834,5.335s-1.02-.72-2.307-1.854a10.469,10.469,0,0,1,2.067-4.714C142.717,740.55,142.911,740.323,143.091,740.11Z" transform="translate(801.178 -20.337)"/><path class="f" d="M151.424,737.99a25.412,25.412,0,0,1-1.787,2.107,28.146,28.146,0,0,1-.327-2.827A3.687,3.687,0,0,1,151.424,737.99Z" transform="translate(798.233 -19.391)"/><path class="w" d="M157.44,759.783l-4.561,2s-.994-.48-2.427-1.374c-4.795-2.947-14.43-10.369-8-19.118s11.85,6.942,14,14.617C157.1,758.242,157.44,759.783,157.44,759.783Z" transform="translate(801.232 -19.872)"/><path class="f" d="M184.18,740.754a3.748,3.748,0,0,1,2.514-1.134c-.053,1.767-.227,3.181-.227,3.181A23.274,23.274,0,0,1,184.18,740.754Z" transform="translate(786.615 -20.174)"/><path class="f" d="M195.114,745.855a14.412,14.412,0,0,1-1.614.587l-2.161-3.034a21.454,21.454,0,0,1,.894-2.947C193.614,741.274,194.641,743.3,195.114,745.855Z" transform="translate(784.23 -20.454)"/><path class="w" d="M175.418,765.863c-.247.053-.507.1-.767.14-15.29,2.321-5.041-5.928-5.041-5.928s.667-.667,1.62-1.674c1.847-2.034,4.621-5.595,4.941-8.889.48-4.955,1.034-9.6,6.882-8.242C188.795,742.617,189.9,762.962,175.418,765.863Z" transform="translate(792.59 -20.644)"/><rect class="ae" width="29.214" height="7.682" transform="translate(938.507 783.289)"/><rect class="ae" width="38.17" height="26.807" transform="translate(933.866 758.322)"/><rect class="f" width="29.214" height="7.682" transform="translate(938.507 783.289)"/><rect class="f" width="38.17" height="26.807" transform="translate(933.866 758.322)"/><rect class="ae" width="29.214" height="7.682" transform="translate(940.428 783.289)"/><path class="f" d="M161.521,764.51c.667,2.294.987,3.868.987,3.868l-4.561,2s-.994-.48-2.427-1.374C157.307,766.744,159.321,765.037,161.521,764.51Z" transform="translate(796.164 -28.467)"/><path class="f" d="M175.418,774.542c-.247.053-.507.1-.767.14-15.29,2.32-5.041-5.928-5.041-5.928s.667-.667,1.62-1.674A10.125,10.125,0,0,1,175.418,774.542Z" transform="translate(792.59 -29.323)"/><path class="w" d="M142.72,788.7s8.562-30.674,20.572-21.212-4.888,24.006-4.888,24.006Z" transform="translate(800.429 -28.854)"/><circle class="f" cx="0.96" cy="0.96" r="0.96" transform="translate(946.509 725.267)"/><circle class="f" cx="0.96" cy="0.96" r="0.96" transform="translate(946.429 729.748)"/><circle class="f" cx="0.96" cy="0.96" r="0.96" transform="translate(974.283 726.148)"/><circle class="f" cx="0.96" cy="0.96" r="0.96" transform="translate(951.877 749.12)"/><circle class="f" cx="0.96" cy="0.96" r="0.96" transform="translate(972.282 733.589)"/><circle class="f" cx="0.96" cy="0.96" r="0.96" transform="translate(962.36 743.519)"/><circle class="f" cx="0.96" cy="0.96" r="0.96" transform="translate(949.79 727.188)"/><circle class="f" cx="0.96" cy="0.96" r="0.96" transform="translate(971.642 729.028)"/><circle class="f" cx="0.96" cy="0.96" r="0.96" transform="translate(968.361 736.47)"/><circle class="f" cx="0.96" cy="0.96" r="0.96" transform="translate(958.279 748.4)"/><circle class="f" cx="0.96" cy="0.96" r="0.96" transform="translate(956.198 743.679)"/><circle class="f" cx="0.96" cy="0.96" r="0.96" transform="translate(951.231 733.029)"/><rect class="f" width="29.214" height="2.807" transform="translate(940.428 783.289)"/><rect class="ae" width="38.17" height="26.807" transform="translate(935.787 758.322)"/><circle class="f" cx="0.96" cy="0.96" r="0.96" transform="translate(959.559 752.721)"/><circle class="f" cx="0.96" cy="0.96" r="0.96" transform="translate(953.798 753.921)"/><circle class="a" cx="9.336" cy="9.336" r="9.336" transform="translate(1577.947 494.843)"/><circle class="a" cx="6.815" cy="6.815" r="6.815" transform="translate(1598.465 477.359)"/></g></svg>